<?xml version="1.0" encoding="utf-8" standalone="no"?>
<!DOCTYPE svg PUBLIC "-//W3C//DTD SVG 1.1//EN"
  "http://www.w3.org/Graphics/SVG/1.1/DTD/svg11.dtd">
<!-- Created with matplotlib (https://matplotlib.org/) -->
<svg height="345.6pt" version="1.1" viewBox="0 0 460.8 345.6" width="460.8pt" xmlns="http://www.w3.org/2000/svg" xmlns:xlink="http://www.w3.org/1999/xlink">
 <defs>
  <style type="text/css">
*{stroke-linecap:butt;stroke-linejoin:round;}
  </style>
 </defs>
 <g id="figure_1">
  <g id="patch_1">
   <path d="M 0 345.6 
L 460.8 345.6 
L 460.8 0 
L 0 0 
z
" style="fill:#ffffff;"/>
  </g>
  <g id="axes_1">
   <g id="patch_2">
    <path d="M 57.6 307.584 
L 414.72 307.584 
L 414.72 41.472 
L 57.6 41.472 
z
" style="fill:#ffffff;"/>
   </g>
   <g id="matplotlib.axis_1">
    <g id="xtick_1">
     <g id="line2d_1">
      <defs>
       <path d="M 0 0 
L 0 3.5 
" id="m824365788f" style="stroke:#000000;stroke-width:0.8;"/>
      </defs>
      <g>
       <use style="stroke:#000000;stroke-width:0.8;" x="73.832727" xlink:href="#m824365788f" y="307.584"/>
      </g>
     </g>
     <g id="text_1">
      <!-- 0.0 -->
      <defs>
       <path d="M 31.78125 66.40625 
Q 24.171875 66.40625 20.328125 58.90625 
Q 16.5 51.421875 16.5 36.375 
Q 16.5 21.390625 20.328125 13.890625 
Q 24.171875 6.390625 31.78125 6.390625 
Q 39.453125 6.390625 43.28125 13.890625 
Q 47.125 21.390625 47.125 36.375 
Q 47.125 51.421875 43.28125 58.90625 
Q 39.453125 66.40625 31.78125 66.40625 
z
M 31.78125 74.21875 
Q 44.046875 74.21875 50.515625 64.515625 
Q 56.984375 54.828125 56.984375 36.375 
Q 56.984375 17.96875 50.515625 8.265625 
Q 44.046875 -1.421875 31.78125 -1.421875 
Q 19.53125 -1.421875 13.0625 8.265625 
Q 6.59375 17.96875 6.59375 36.375 
Q 6.59375 54.828125 13.0625 64.515625 
Q 19.53125 74.21875 31.78125 74.21875 
z
" id="DejaVuSans-48"/>
       <path d="M 10.6875 12.40625 
L 21 12.40625 
L 21 0 
L 10.6875 0 
z
" id="DejaVuSans-46"/>
      </defs>
      <g transform="translate(65.881165 322.182437)scale(0.1 -0.1)">
       <use xlink:href="#DejaVuSans-48"/>
       <use x="63.623047" xlink:href="#DejaVuSans-46"/>
       <use x="95.410156" xlink:href="#DejaVuSans-48"/>
      </g>
     </g>
    </g>
    <g id="xtick_2">
     <g id="line2d_2">
      <g>
       <use style="stroke:#000000;stroke-width:0.8;" x="138.763636" xlink:href="#m824365788f" y="307.584"/>
      </g>
     </g>
     <g id="text_2">
      <!-- 0.2 -->
      <defs>
       <path d="M 19.1875 8.296875 
L 53.609375 8.296875 
L 53.609375 0 
L 7.328125 0 
L 7.328125 8.296875 
Q 12.9375 14.109375 22.625 23.890625 
Q 32.328125 33.6875 34.8125 36.53125 
Q 39.546875 41.84375 41.421875 45.53125 
Q 43.3125 49.21875 43.3125 52.78125 
Q 43.3125 58.59375 39.234375 62.25 
Q 35.15625 65.921875 28.609375 65.921875 
Q 23.96875 65.921875 18.8125 64.3125 
Q 13.671875 62.703125 7.8125 59.421875 
L 7.8125 69.390625 
Q 13.765625 71.78125 18.9375 73 
Q 24.125 74.21875 28.421875 74.21875 
Q 39.75 74.21875 46.484375 68.546875 
Q 53.21875 62.890625 53.21875 53.421875 
Q 53.21875 48.921875 51.53125 44.890625 
Q 49.859375 40.875 45.40625 35.40625 
Q 44.1875 33.984375 37.640625 27.21875 
Q 31.109375 20.453125 19.1875 8.296875 
z
" id="DejaVuSans-50"/>
      </defs>
      <g transform="translate(130.812074 322.182437)scale(0.1 -0.1)">
       <use xlink:href="#DejaVuSans-48"/>
       <use x="63.623047" xlink:href="#DejaVuSans-46"/>
       <use x="95.410156" xlink:href="#DejaVuSans-50"/>
      </g>
     </g>
    </g>
    <g id="xtick_3">
     <g id="line2d_3">
      <g>
       <use style="stroke:#000000;stroke-width:0.8;" x="203.694545" xlink:href="#m824365788f" y="307.584"/>
      </g>
     </g>
     <g id="text_3">
      <!-- 0.4 -->
      <defs>
       <path d="M 37.796875 64.3125 
L 12.890625 25.390625 
L 37.796875 25.390625 
z
M 35.203125 72.90625 
L 47.609375 72.90625 
L 47.609375 25.390625 
L 58.015625 25.390625 
L 58.015625 17.1875 
L 47.609375 17.1875 
L 47.609375 0 
L 37.796875 0 
L 37.796875 17.1875 
L 4.890625 17.1875 
L 4.890625 26.703125 
z
" id="DejaVuSans-52"/>
      </defs>
      <g transform="translate(195.742983 322.182437)scale(0.1 -0.1)">
       <use xlink:href="#DejaVuSans-48"/>
       <use x="63.623047" xlink:href="#DejaVuSans-46"/>
       <use x="95.410156" xlink:href="#DejaVuSans-52"/>
      </g>
     </g>
    </g>
    <g id="xtick_4">
     <g id="line2d_4">
      <g>
       <use style="stroke:#000000;stroke-width:0.8;" x="268.625455" xlink:href="#m824365788f" y="307.584"/>
      </g>
     </g>
     <g id="text_4">
      <!-- 0.6 -->
      <defs>
       <path d="M 33.015625 40.375 
Q 26.375 40.375 22.484375 35.828125 
Q 18.609375 31.296875 18.609375 23.390625 
Q 18.609375 15.53125 22.484375 10.953125 
Q 26.375 6.390625 33.015625 6.390625 
Q 39.65625 6.390625 43.53125 10.953125 
Q 47.40625 15.53125 47.40625 23.390625 
Q 47.40625 31.296875 43.53125 35.828125 
Q 39.65625 40.375 33.015625 40.375 
z
M 52.59375 71.296875 
L 52.59375 62.3125 
Q 48.875 64.0625 45.09375 64.984375 
Q 41.3125 65.921875 37.59375 65.921875 
Q 27.828125 65.921875 22.671875 59.328125 
Q 17.53125 52.734375 16.796875 39.40625 
Q 19.671875 43.65625 24.015625 45.921875 
Q 28.375 48.1875 33.59375 48.1875 
Q 44.578125 48.1875 50.953125 41.515625 
Q 57.328125 34.859375 57.328125 23.390625 
Q 57.328125 12.15625 50.6875 5.359375 
Q 44.046875 -1.421875 33.015625 -1.421875 
Q 20.359375 -1.421875 13.671875 8.265625 
Q 6.984375 17.96875 6.984375 36.375 
Q 6.984375 53.65625 15.1875 63.9375 
Q 23.390625 74.21875 37.203125 74.21875 
Q 40.921875 74.21875 44.703125 73.484375 
Q 48.484375 72.75 52.59375 71.296875 
z
" id="DejaVuSans-54"/>
      </defs>
      <g transform="translate(260.673892 322.182437)scale(0.1 -0.1)">
       <use xlink:href="#DejaVuSans-48"/>
       <use x="63.623047" xlink:href="#DejaVuSans-46"/>
       <use x="95.410156" xlink:href="#DejaVuSans-54"/>
      </g>
     </g>
    </g>
    <g id="xtick_5">
     <g id="line2d_5">
      <g>
       <use style="stroke:#000000;stroke-width:0.8;" x="333.556364" xlink:href="#m824365788f" y="307.584"/>
      </g>
     </g>
     <g id="text_5">
      <!-- 0.8 -->
      <defs>
       <path d="M 31.78125 34.625 
Q 24.75 34.625 20.71875 30.859375 
Q 16.703125 27.09375 16.703125 20.515625 
Q 16.703125 13.921875 20.71875 10.15625 
Q 24.75 6.390625 31.78125 6.390625 
Q 38.8125 6.390625 42.859375 10.171875 
Q 46.921875 13.96875 46.921875 20.515625 
Q 46.921875 27.09375 42.890625 30.859375 
Q 38.875 34.625 31.78125 34.625 
z
M 21.921875 38.8125 
Q 15.578125 40.375 12.03125 44.71875 
Q 8.5 49.078125 8.5 55.328125 
Q 8.5 64.0625 14.71875 69.140625 
Q 20.953125 74.21875 31.78125 74.21875 
Q 42.671875 74.21875 48.875 69.140625 
Q 55.078125 64.0625 55.078125 55.328125 
Q 55.078125 49.078125 51.53125 44.71875 
Q 48 40.375 41.703125 38.8125 
Q 48.828125 37.15625 52.796875 32.3125 
Q 56.78125 27.484375 56.78125 20.515625 
Q 56.78125 9.90625 50.3125 4.234375 
Q 43.84375 -1.421875 31.78125 -1.421875 
Q 19.734375 -1.421875 13.25 4.234375 
Q 6.78125 9.90625 6.78125 20.515625 
Q 6.78125 27.484375 10.78125 32.3125 
Q 14.796875 37.15625 21.921875 38.8125 
z
M 18.3125 54.390625 
Q 18.3125 48.734375 21.84375 45.5625 
Q 25.390625 42.390625 31.78125 42.390625 
Q 38.140625 42.390625 41.71875 45.5625 
Q 45.3125 48.734375 45.3125 54.390625 
Q 45.3125 60.0625 41.71875 63.234375 
Q 38.140625 66.40625 31.78125 66.40625 
Q 25.390625 66.40625 21.84375 63.234375 
Q 18.3125 60.0625 18.3125 54.390625 
z
" id="DejaVuSans-56"/>
      </defs>
      <g transform="translate(325.604801 322.182437)scale(0.1 -0.1)">
       <use xlink:href="#DejaVuSans-48"/>
       <use x="63.623047" xlink:href="#DejaVuSans-46"/>
       <use x="95.410156" xlink:href="#DejaVuSans-56"/>
      </g>
     </g>
    </g>
    <g id="xtick_6">
     <g id="line2d_6">
      <g>
       <use style="stroke:#000000;stroke-width:0.8;" x="398.487273" xlink:href="#m824365788f" y="307.584"/>
      </g>
     </g>
     <g id="text_6">
      <!-- 1.0 -->
      <defs>
       <path d="M 12.40625 8.296875 
L 28.515625 8.296875 
L 28.515625 63.921875 
L 10.984375 60.40625 
L 10.984375 69.390625 
L 28.421875 72.90625 
L 38.28125 72.90625 
L 38.28125 8.296875 
L 54.390625 8.296875 
L 54.390625 0 
L 12.40625 0 
z
" id="DejaVuSans-49"/>
      </defs>
      <g transform="translate(390.53571 322.182437)scale(0.1 -0.1)">
       <use xlink:href="#DejaVuSans-49"/>
       <use x="63.623047" xlink:href="#DejaVuSans-46"/>
       <use x="95.410156" xlink:href="#DejaVuSans-48"/>
      </g>
     </g>
    </g>
   </g>
   <g id="matplotlib.axis_2">
    <g id="ytick_1">
     <g id="line2d_7">
      <defs>
       <path d="M 0 0 
L -3.5 0 
" id="ma2a26e04a3" style="stroke:#000000;stroke-width:0.8;"/>
      </defs>
      <g>
       <use style="stroke:#000000;stroke-width:0.8;" x="57.6" xlink:href="#ma2a26e04a3" y="295.488"/>
      </g>
     </g>
     <g id="text_7">
      <!-- 0.0 -->
      <g transform="translate(34.696875 299.287219)scale(0.1 -0.1)">
       <use xlink:href="#DejaVuSans-48"/>
       <use x="63.623047" xlink:href="#DejaVuSans-46"/>
       <use x="95.410156" xlink:href="#DejaVuSans-48"/>
      </g>
     </g>
    </g>
    <g id="ytick_2">
     <g id="line2d_8">
      <g>
       <use style="stroke:#000000;stroke-width:0.8;" x="57.6" xlink:href="#ma2a26e04a3" y="247.104"/>
      </g>
     </g>
     <g id="text_8">
      <!-- 0.2 -->
      <g transform="translate(34.696875 250.903219)scale(0.1 -0.1)">
       <use xlink:href="#DejaVuSans-48"/>
       <use x="63.623047" xlink:href="#DejaVuSans-46"/>
       <use x="95.410156" xlink:href="#DejaVuSans-50"/>
      </g>
     </g>
    </g>
    <g id="ytick_3">
     <g id="line2d_9">
      <g>
       <use style="stroke:#000000;stroke-width:0.8;" x="57.6" xlink:href="#ma2a26e04a3" y="198.72"/>
      </g>
     </g>
     <g id="text_9">
      <!-- 0.4 -->
      <g transform="translate(34.696875 202.519219)scale(0.1 -0.1)">
       <use xlink:href="#DejaVuSans-48"/>
       <use x="63.623047" xlink:href="#DejaVuSans-46"/>
       <use x="95.410156" xlink:href="#DejaVuSans-52"/>
      </g>
     </g>
    </g>
    <g id="ytick_4">
     <g id="line2d_10">
      <g>
       <use style="stroke:#000000;stroke-width:0.8;" x="57.6" xlink:href="#ma2a26e04a3" y="150.336"/>
      </g>
     </g>
     <g id="text_10">
      <!-- 0.6 -->
      <g transform="translate(34.696875 154.135219)scale(0.1 -0.1)">
       <use xlink:href="#DejaVuSans-48"/>
       <use x="63.623047" xlink:href="#DejaVuSans-46"/>
       <use x="95.410156" xlink:href="#DejaVuSans-54"/>
      </g>
     </g>
    </g>
    <g id="ytick_5">
     <g id="line2d_11">
      <g>
       <use style="stroke:#000000;stroke-width:0.8;" x="57.6" xlink:href="#ma2a26e04a3" y="101.952"/>
      </g>
     </g>
     <g id="text_11">
      <!-- 0.8 -->
      <g transform="translate(34.696875 105.751219)scale(0.1 -0.1)">
       <use xlink:href="#DejaVuSans-48"/>
       <use x="63.623047" xlink:href="#DejaVuSans-46"/>
       <use x="95.410156" xlink:href="#DejaVuSans-56"/>
      </g>
     </g>
    </g>
    <g id="ytick_6">
     <g id="line2d_12">
      <g>
       <use style="stroke:#000000;stroke-width:0.8;" x="57.6" xlink:href="#ma2a26e04a3" y="53.568"/>
      </g>
     </g>
     <g id="text_12">
      <!-- 1.0 -->
      <g transform="translate(34.696875 57.367219)scale(0.1 -0.1)">
       <use xlink:href="#DejaVuSans-49"/>
       <use x="63.623047" xlink:href="#DejaVuSans-46"/>
       <use x="95.410156" xlink:href="#DejaVuSans-48"/>
      </g>
     </g>
    </g>
   </g>
   <g id="line2d_13">
    <path clip-path="url(#pf9c88724e6)" d="M 73.832727 53.568 
L 78.985974 53.568 
L 78.985974 57.408 
L 73.832727 57.408 
L 73.832727 65.088 
L 78.985974 65.088 
L 78.985974 61.248 
L 84.139221 61.248 
L 84.139221 65.088 
L 89.292468 65.088 
L 89.292468 57.408 
L 84.139221 57.408 
L 84.139221 53.568 
L 94.445714 53.568 
L 94.445714 57.408 
L 99.598961 57.408 
L 99.598961 53.568 
L 109.905455 53.568 
L 109.905455 57.408 
L 104.752208 57.408 
L 104.752208 61.248 
L 109.905455 61.248 
L 109.905455 65.088 
L 99.598961 65.088 
L 99.598961 61.248 
L 94.445714 61.248 
L 94.445714 72.768 
L 99.598961 72.768 
L 99.598961 68.928 
L 109.905455 68.928 
L 109.905455 72.768 
L 104.752208 72.768 
L 104.752208 76.608 
L 109.905455 76.608 
L 109.905455 80.448 
L 99.598961 80.448 
L 99.598961 76.608 
L 94.445714 76.608 
L 94.445714 80.448 
L 84.139221 80.448 
L 84.139221 76.608 
L 89.292468 76.608 
L 89.292468 68.928 
L 84.139221 68.928 
L 84.139221 72.768 
L 78.985974 72.768 
L 78.985974 68.928 
L 73.832727 68.928 
L 73.832727 76.608 
L 78.985974 76.608 
L 78.985974 80.448 
L 73.832727 80.448 
L 73.832727 88.128 
L 78.985974 88.128 
L 78.985974 84.288 
L 89.292468 84.288 
L 89.292468 88.128 
L 84.139221 88.128 
L 84.139221 91.968 
L 89.292468 91.968 
L 89.292468 95.808 
L 78.985974 95.808 
L 78.985974 91.968 
L 73.832727 91.968 
L 73.832727 99.648 
L 78.985974 99.648 
L 78.985974 103.488 
L 73.832727 103.488 
L 73.832727 111.168 
L 78.985974 111.168 
L 78.985974 107.328 
L 84.139221 107.328 
L 84.139221 111.168 
L 89.292468 111.168 
L 89.292468 103.488 
L 84.139221 103.488 
L 84.139221 99.648 
L 99.598961 99.648 
L 99.598961 103.488 
L 94.445714 103.488 
L 94.445714 111.168 
L 99.598961 111.168 
L 99.598961 107.328 
L 104.752208 107.328 
L 104.752208 111.168 
L 109.905455 111.168 
L 109.905455 103.488 
L 104.752208 103.488 
L 104.752208 99.648 
L 109.905455 99.648 
L 109.905455 91.968 
L 104.752208 91.968 
L 104.752208 95.808 
L 94.445714 95.808 
L 94.445714 91.968 
L 99.598961 91.968 
L 99.598961 88.128 
L 94.445714 88.128 
L 94.445714 84.288 
L 104.752208 84.288 
L 104.752208 88.128 
L 109.905455 88.128 
L 109.905455 84.288 
L 115.058701 84.288 
L 115.058701 88.128 
L 120.211948 88.128 
L 120.211948 84.288 
L 130.518442 84.288 
L 130.518442 88.128 
L 125.365195 88.128 
L 125.365195 91.968 
L 130.518442 91.968 
L 130.518442 95.808 
L 120.211948 95.808 
L 120.211948 91.968 
L 115.058701 91.968 
L 115.058701 99.648 
L 120.211948 99.648 
L 120.211948 103.488 
L 115.058701 103.488 
L 115.058701 111.168 
L 120.211948 111.168 
L 120.211948 107.328 
L 125.365195 107.328 
L 125.365195 111.168 
L 130.518442 111.168 
L 130.518442 103.488 
L 125.365195 103.488 
L 125.365195 99.648 
L 140.824935 99.648 
L 140.824935 103.488 
L 135.671688 103.488 
L 135.671688 111.168 
L 140.824935 111.168 
L 140.824935 107.328 
L 145.978182 107.328 
L 145.978182 111.168 
L 151.131429 111.168 
L 151.131429 103.488 
L 145.978182 103.488 
L 145.978182 99.648 
L 151.131429 99.648 
L 151.131429 91.968 
L 145.978182 91.968 
L 145.978182 95.808 
L 135.671688 95.808 
L 135.671688 91.968 
L 140.824935 91.968 
L 140.824935 88.128 
L 135.671688 88.128 
L 135.671688 84.288 
L 145.978182 84.288 
L 145.978182 88.128 
L 151.131429 88.128 
L 151.131429 80.448 
L 145.978182 80.448 
L 145.978182 76.608 
L 151.131429 76.608 
L 151.131429 68.928 
L 145.978182 68.928 
L 145.978182 72.768 
L 140.824935 72.768 
L 140.824935 68.928 
L 135.671688 68.928 
L 135.671688 76.608 
L 140.824935 76.608 
L 140.824935 80.448 
L 130.518442 80.448 
L 130.518442 76.608 
L 125.365195 76.608 
L 125.365195 80.448 
L 115.058701 80.448 
L 115.058701 76.608 
L 120.211948 76.608 
L 120.211948 72.768 
L 115.058701 72.768 
L 115.058701 68.928 
L 125.365195 68.928 
L 125.365195 72.768 
L 130.518442 72.768 
L 130.518442 61.248 
L 125.365195 61.248 
L 125.365195 65.088 
L 115.058701 65.088 
L 115.058701 61.248 
L 120.211948 61.248 
L 120.211948 57.408 
L 115.058701 57.408 
L 115.058701 53.568 
L 125.365195 53.568 
L 125.365195 57.408 
L 130.518442 57.408 
L 130.518442 53.568 
L 140.824935 53.568 
L 140.824935 57.408 
L 135.671688 57.408 
L 135.671688 65.088 
L 140.824935 65.088 
L 140.824935 61.248 
L 145.978182 61.248 
L 145.978182 65.088 
L 151.131429 65.088 
L 151.131429 57.408 
L 145.978182 57.408 
L 145.978182 53.568 
L 156.284675 53.568 
L 156.284675 57.408 
L 161.437922 57.408 
L 161.437922 53.568 
L 171.744416 53.568 
L 171.744416 57.408 
L 166.591169 57.408 
L 166.591169 61.248 
L 171.744416 61.248 
L 171.744416 65.088 
L 161.437922 65.088 
L 161.437922 61.248 
L 156.284675 61.248 
L 156.284675 68.928 
L 161.437922 68.928 
L 161.437922 72.768 
L 156.284675 72.768 
L 156.284675 80.448 
L 161.437922 80.448 
L 161.437922 76.608 
L 166.591169 76.608 
L 166.591169 80.448 
L 171.744416 80.448 
L 171.744416 72.768 
L 166.591169 72.768 
L 166.591169 68.928 
L 182.050909 68.928 
L 182.050909 72.768 
L 176.897662 72.768 
L 176.897662 80.448 
L 182.050909 80.448 
L 182.050909 76.608 
L 187.204156 76.608 
L 187.204156 80.448 
L 192.357403 80.448 
L 192.357403 72.768 
L 187.204156 72.768 
L 187.204156 68.928 
L 192.357403 68.928 
L 192.357403 61.248 
L 187.204156 61.248 
L 187.204156 65.088 
L 176.897662 65.088 
L 176.897662 61.248 
L 182.050909 61.248 
L 182.050909 57.408 
L 176.897662 57.408 
L 176.897662 53.568 
L 187.204156 53.568 
L 187.204156 57.408 
L 192.357403 57.408 
L 192.357403 53.568 
L 202.663896 53.568 
L 202.663896 57.408 
L 197.510649 57.408 
L 197.510649 65.088 
L 202.663896 65.088 
L 202.663896 61.248 
L 207.817143 61.248 
L 207.817143 65.088 
L 212.97039 65.088 
L 212.97039 57.408 
L 207.817143 57.408 
L 207.817143 53.568 
L 218.123636 53.568 
L 218.123636 57.408 
L 223.276883 57.408 
L 223.276883 53.568 
L 233.583377 53.568 
L 233.583377 57.408 
L 228.43013 57.408 
L 228.43013 61.248 
L 233.583377 61.248 
L 233.583377 65.088 
L 223.276883 65.088 
L 223.276883 61.248 
L 218.123636 61.248 
L 218.123636 72.768 
L 223.276883 72.768 
L 223.276883 68.928 
L 233.583377 68.928 
L 233.583377 72.768 
L 228.43013 72.768 
L 228.43013 76.608 
L 233.583377 76.608 
L 233.583377 80.448 
L 223.276883 80.448 
L 223.276883 76.608 
L 218.123636 76.608 
L 218.123636 80.448 
L 207.817143 80.448 
L 207.817143 76.608 
L 212.97039 76.608 
L 212.97039 68.928 
L 207.817143 68.928 
L 207.817143 72.768 
L 202.663896 72.768 
L 202.663896 68.928 
L 197.510649 68.928 
L 197.510649 76.608 
L 202.663896 76.608 
L 202.663896 80.448 
L 197.510649 80.448 
L 197.510649 84.288 
L 202.663896 84.288 
L 202.663896 88.128 
L 197.510649 88.128 
L 197.510649 95.808 
L 202.663896 95.808 
L 202.663896 91.968 
L 207.817143 91.968 
L 207.817143 95.808 
L 212.97039 95.808 
L 212.97039 88.128 
L 207.817143 88.128 
L 207.817143 84.288 
L 218.123636 84.288 
L 218.123636 88.128 
L 223.276883 88.128 
L 223.276883 84.288 
L 233.583377 84.288 
L 233.583377 88.128 
L 228.43013 88.128 
L 228.43013 91.968 
L 233.583377 91.968 
L 233.583377 95.808 
L 223.276883 95.808 
L 223.276883 91.968 
L 218.123636 91.968 
L 218.123636 103.488 
L 223.276883 103.488 
L 223.276883 99.648 
L 233.583377 99.648 
L 233.583377 103.488 
L 228.43013 103.488 
L 228.43013 107.328 
L 233.583377 107.328 
L 233.583377 111.168 
L 223.276883 111.168 
L 223.276883 107.328 
L 218.123636 107.328 
L 218.123636 111.168 
L 207.817143 111.168 
L 207.817143 107.328 
L 212.97039 107.328 
L 212.97039 99.648 
L 207.817143 99.648 
L 207.817143 103.488 
L 202.663896 103.488 
L 202.663896 99.648 
L 197.510649 99.648 
L 197.510649 107.328 
L 202.663896 107.328 
L 202.663896 111.168 
L 192.357403 111.168 
L 192.357403 107.328 
L 187.204156 107.328 
L 187.204156 111.168 
L 176.897662 111.168 
L 176.897662 107.328 
L 182.050909 107.328 
L 182.050909 103.488 
L 176.897662 103.488 
L 176.897662 99.648 
L 187.204156 99.648 
L 187.204156 103.488 
L 192.357403 103.488 
L 192.357403 95.808 
L 187.204156 95.808 
L 187.204156 91.968 
L 192.357403 91.968 
L 192.357403 84.288 
L 187.204156 84.288 
L 187.204156 88.128 
L 182.050909 88.128 
L 182.050909 84.288 
L 176.897662 84.288 
L 176.897662 91.968 
L 182.050909 91.968 
L 182.050909 95.808 
L 166.591169 95.808 
L 166.591169 91.968 
L 171.744416 91.968 
L 171.744416 84.288 
L 166.591169 84.288 
L 166.591169 88.128 
L 161.437922 88.128 
L 161.437922 84.288 
L 156.284675 84.288 
L 156.284675 91.968 
L 161.437922 91.968 
L 161.437922 95.808 
L 156.284675 95.808 
L 156.284675 103.488 
L 161.437922 103.488 
L 161.437922 99.648 
L 171.744416 99.648 
L 171.744416 103.488 
L 166.591169 103.488 
L 166.591169 107.328 
L 171.744416 107.328 
L 171.744416 111.168 
L 161.437922 111.168 
L 161.437922 107.328 
L 156.284675 107.328 
L 156.284675 118.848 
L 161.437922 118.848 
L 161.437922 115.008 
L 171.744416 115.008 
L 171.744416 118.848 
L 166.591169 118.848 
L 166.591169 122.688 
L 171.744416 122.688 
L 171.744416 126.528 
L 161.437922 126.528 
L 161.437922 122.688 
L 156.284675 122.688 
L 156.284675 130.368 
L 161.437922 130.368 
L 161.437922 134.208 
L 156.284675 134.208 
L 156.284675 141.888 
L 161.437922 141.888 
L 161.437922 138.048 
L 166.591169 138.048 
L 166.591169 141.888 
L 171.744416 141.888 
L 171.744416 134.208 
L 166.591169 134.208 
L 166.591169 130.368 
L 182.050909 130.368 
L 182.050909 134.208 
L 176.897662 134.208 
L 176.897662 141.888 
L 182.050909 141.888 
L 182.050909 138.048 
L 187.204156 138.048 
L 187.204156 141.888 
L 192.357403 141.888 
L 192.357403 134.208 
L 187.204156 134.208 
L 187.204156 130.368 
L 192.357403 130.368 
L 192.357403 122.688 
L 187.204156 122.688 
L 187.204156 126.528 
L 176.897662 126.528 
L 176.897662 122.688 
L 182.050909 122.688 
L 182.050909 118.848 
L 176.897662 118.848 
L 176.897662 115.008 
L 187.204156 115.008 
L 187.204156 118.848 
L 192.357403 118.848 
L 192.357403 115.008 
L 202.663896 115.008 
L 202.663896 118.848 
L 197.510649 118.848 
L 197.510649 126.528 
L 202.663896 126.528 
L 202.663896 122.688 
L 207.817143 122.688 
L 207.817143 126.528 
L 212.97039 126.528 
L 212.97039 118.848 
L 207.817143 118.848 
L 207.817143 115.008 
L 218.123636 115.008 
L 218.123636 118.848 
L 223.276883 118.848 
L 223.276883 115.008 
L 233.583377 115.008 
L 233.583377 118.848 
L 228.43013 118.848 
L 228.43013 122.688 
L 233.583377 122.688 
L 233.583377 126.528 
L 223.276883 126.528 
L 223.276883 122.688 
L 218.123636 122.688 
L 218.123636 134.208 
L 223.276883 134.208 
L 223.276883 130.368 
L 233.583377 130.368 
L 233.583377 134.208 
L 228.43013 134.208 
L 228.43013 138.048 
L 233.583377 138.048 
L 233.583377 141.888 
L 223.276883 141.888 
L 223.276883 138.048 
L 218.123636 138.048 
L 218.123636 141.888 
L 207.817143 141.888 
L 207.817143 138.048 
L 212.97039 138.048 
L 212.97039 130.368 
L 207.817143 130.368 
L 207.817143 134.208 
L 202.663896 134.208 
L 202.663896 130.368 
L 197.510649 130.368 
L 197.510649 138.048 
L 202.663896 138.048 
L 202.663896 141.888 
L 197.510649 141.888 
L 197.510649 145.728 
L 202.663896 145.728 
L 202.663896 149.568 
L 197.510649 149.568 
L 197.510649 157.248 
L 202.663896 157.248 
L 202.663896 153.408 
L 207.817143 153.408 
L 207.817143 157.248 
L 212.97039 157.248 
L 212.97039 149.568 
L 207.817143 149.568 
L 207.817143 145.728 
L 218.123636 145.728 
L 218.123636 149.568 
L 223.276883 149.568 
L 223.276883 145.728 
L 233.583377 145.728 
L 233.583377 149.568 
L 228.43013 149.568 
L 228.43013 153.408 
L 233.583377 153.408 
L 233.583377 157.248 
L 223.276883 157.248 
L 223.276883 153.408 
L 218.123636 153.408 
L 218.123636 164.928 
L 223.276883 164.928 
L 223.276883 161.088 
L 233.583377 161.088 
L 233.583377 164.928 
L 228.43013 164.928 
L 228.43013 168.768 
L 233.583377 168.768 
L 233.583377 172.608 
L 223.276883 172.608 
L 223.276883 168.768 
L 218.123636 168.768 
L 218.123636 172.608 
L 207.817143 172.608 
L 207.817143 168.768 
L 212.97039 168.768 
L 212.97039 161.088 
L 207.817143 161.088 
L 207.817143 164.928 
L 202.663896 164.928 
L 202.663896 161.088 
L 197.510649 161.088 
L 197.510649 168.768 
L 202.663896 168.768 
L 202.663896 172.608 
L 192.357403 172.608 
L 192.357403 168.768 
L 187.204156 168.768 
L 187.204156 172.608 
L 176.897662 172.608 
L 176.897662 168.768 
L 182.050909 168.768 
L 182.050909 164.928 
L 176.897662 164.928 
L 176.897662 161.088 
L 187.204156 161.088 
L 187.204156 164.928 
L 192.357403 164.928 
L 192.357403 157.248 
L 187.204156 157.248 
L 187.204156 153.408 
L 192.357403 153.408 
L 192.357403 145.728 
L 187.204156 145.728 
L 187.204156 149.568 
L 182.050909 149.568 
L 182.050909 145.728 
L 176.897662 145.728 
L 176.897662 153.408 
L 182.050909 153.408 
L 182.050909 157.248 
L 166.591169 157.248 
L 166.591169 153.408 
L 171.744416 153.408 
L 171.744416 145.728 
L 166.591169 145.728 
L 166.591169 149.568 
L 161.437922 149.568 
L 161.437922 145.728 
L 156.284675 145.728 
L 156.284675 153.408 
L 161.437922 153.408 
L 161.437922 157.248 
L 156.284675 157.248 
L 156.284675 164.928 
L 161.437922 164.928 
L 161.437922 161.088 
L 171.744416 161.088 
L 171.744416 164.928 
L 166.591169 164.928 
L 166.591169 168.768 
L 171.744416 168.768 
L 171.744416 172.608 
L 161.437922 172.608 
L 161.437922 168.768 
L 156.284675 168.768 
L 156.284675 172.608 
L 145.978182 172.608 
L 145.978182 168.768 
L 151.131429 168.768 
L 151.131429 161.088 
L 145.978182 161.088 
L 145.978182 164.928 
L 140.824935 164.928 
L 140.824935 161.088 
L 135.671688 161.088 
L 135.671688 168.768 
L 140.824935 168.768 
L 140.824935 172.608 
L 130.518442 172.608 
L 130.518442 168.768 
L 125.365195 168.768 
L 125.365195 172.608 
L 115.058701 172.608 
L 115.058701 168.768 
L 120.211948 168.768 
L 120.211948 164.928 
L 115.058701 164.928 
L 115.058701 161.088 
L 125.365195 161.088 
L 125.365195 164.928 
L 130.518442 164.928 
L 130.518442 153.408 
L 125.365195 153.408 
L 125.365195 157.248 
L 115.058701 157.248 
L 115.058701 153.408 
L 120.211948 153.408 
L 120.211948 149.568 
L 115.058701 149.568 
L 115.058701 145.728 
L 125.365195 145.728 
L 125.365195 149.568 
L 130.518442 149.568 
L 130.518442 145.728 
L 140.824935 145.728 
L 140.824935 149.568 
L 135.671688 149.568 
L 135.671688 157.248 
L 140.824935 157.248 
L 140.824935 153.408 
L 145.978182 153.408 
L 145.978182 157.248 
L 151.131429 157.248 
L 151.131429 149.568 
L 145.978182 149.568 
L 145.978182 145.728 
L 151.131429 145.728 
L 151.131429 138.048 
L 145.978182 138.048 
L 145.978182 141.888 
L 135.671688 141.888 
L 135.671688 138.048 
L 140.824935 138.048 
L 140.824935 134.208 
L 135.671688 134.208 
L 135.671688 130.368 
L 145.978182 130.368 
L 145.978182 134.208 
L 151.131429 134.208 
L 151.131429 126.528 
L 145.978182 126.528 
L 145.978182 122.688 
L 151.131429 122.688 
L 151.131429 115.008 
L 145.978182 115.008 
L 145.978182 118.848 
L 140.824935 118.848 
L 140.824935 115.008 
L 135.671688 115.008 
L 135.671688 122.688 
L 140.824935 122.688 
L 140.824935 126.528 
L 125.365195 126.528 
L 125.365195 122.688 
L 130.518442 122.688 
L 130.518442 115.008 
L 125.365195 115.008 
L 125.365195 118.848 
L 120.211948 118.848 
L 120.211948 115.008 
L 115.058701 115.008 
L 115.058701 122.688 
L 120.211948 122.688 
L 120.211948 126.528 
L 115.058701 126.528 
L 115.058701 134.208 
L 120.211948 134.208 
L 120.211948 130.368 
L 130.518442 130.368 
L 130.518442 134.208 
L 125.365195 134.208 
L 125.365195 138.048 
L 130.518442 138.048 
L 130.518442 141.888 
L 120.211948 141.888 
L 120.211948 138.048 
L 115.058701 138.048 
L 115.058701 141.888 
L 109.905455 141.888 
L 109.905455 138.048 
L 104.752208 138.048 
L 104.752208 141.888 
L 94.445714 141.888 
L 94.445714 138.048 
L 99.598961 138.048 
L 99.598961 134.208 
L 94.445714 134.208 
L 94.445714 130.368 
L 104.752208 130.368 
L 104.752208 134.208 
L 109.905455 134.208 
L 109.905455 126.528 
L 104.752208 126.528 
L 104.752208 122.688 
L 109.905455 122.688 
L 109.905455 115.008 
L 104.752208 115.008 
L 104.752208 118.848 
L 99.598961 118.848 
L 99.598961 115.008 
L 94.445714 115.008 
L 94.445714 122.688 
L 99.598961 122.688 
L 99.598961 126.528 
L 84.139221 126.528 
L 84.139221 122.688 
L 89.292468 122.688 
L 89.292468 115.008 
L 84.139221 115.008 
L 84.139221 118.848 
L 78.985974 118.848 
L 78.985974 115.008 
L 73.832727 115.008 
L 73.832727 122.688 
L 78.985974 122.688 
L 78.985974 126.528 
L 73.832727 126.528 
L 73.832727 134.208 
L 78.985974 134.208 
L 78.985974 130.368 
L 89.292468 130.368 
L 89.292468 134.208 
L 84.139221 134.208 
L 84.139221 138.048 
L 89.292468 138.048 
L 89.292468 141.888 
L 78.985974 141.888 
L 78.985974 138.048 
L 73.832727 138.048 
L 73.832727 145.728 
L 78.985974 145.728 
L 78.985974 149.568 
L 73.832727 149.568 
L 73.832727 157.248 
L 78.985974 157.248 
L 78.985974 153.408 
L 84.139221 153.408 
L 84.139221 157.248 
L 89.292468 157.248 
L 89.292468 149.568 
L 84.139221 149.568 
L 84.139221 145.728 
L 94.445714 145.728 
L 94.445714 149.568 
L 99.598961 149.568 
L 99.598961 145.728 
L 109.905455 145.728 
L 109.905455 149.568 
L 104.752208 149.568 
L 104.752208 153.408 
L 109.905455 153.408 
L 109.905455 157.248 
L 99.598961 157.248 
L 99.598961 153.408 
L 94.445714 153.408 
L 94.445714 164.928 
L 99.598961 164.928 
L 99.598961 161.088 
L 109.905455 161.088 
L 109.905455 164.928 
L 104.752208 164.928 
L 104.752208 168.768 
L 109.905455 168.768 
L 109.905455 172.608 
L 99.598961 172.608 
L 99.598961 168.768 
L 94.445714 168.768 
L 94.445714 172.608 
L 84.139221 172.608 
L 84.139221 168.768 
L 89.292468 168.768 
L 89.292468 161.088 
L 84.139221 161.088 
L 84.139221 164.928 
L 78.985974 164.928 
L 78.985974 161.088 
L 73.832727 161.088 
L 73.832727 168.768 
L 78.985974 168.768 
L 78.985974 172.608 
L 73.832727 172.608 
L 73.832727 180.288 
L 78.985974 180.288 
L 78.985974 176.448 
L 89.292468 176.448 
L 89.292468 180.288 
L 84.139221 180.288 
L 84.139221 184.128 
L 89.292468 184.128 
L 89.292468 187.968 
L 78.985974 187.968 
L 78.985974 184.128 
L 73.832727 184.128 
L 73.832727 191.808 
L 78.985974 191.808 
L 78.985974 195.648 
L 73.832727 195.648 
L 73.832727 203.328 
L 78.985974 203.328 
L 78.985974 199.488 
L 84.139221 199.488 
L 84.139221 203.328 
L 89.292468 203.328 
L 89.292468 195.648 
L 84.139221 195.648 
L 84.139221 191.808 
L 99.598961 191.808 
L 99.598961 195.648 
L 94.445714 195.648 
L 94.445714 203.328 
L 99.598961 203.328 
L 99.598961 199.488 
L 104.752208 199.488 
L 104.752208 203.328 
L 109.905455 203.328 
L 109.905455 195.648 
L 104.752208 195.648 
L 104.752208 191.808 
L 109.905455 191.808 
L 109.905455 184.128 
L 104.752208 184.128 
L 104.752208 187.968 
L 94.445714 187.968 
L 94.445714 184.128 
L 99.598961 184.128 
L 99.598961 180.288 
L 94.445714 180.288 
L 94.445714 176.448 
L 104.752208 176.448 
L 104.752208 180.288 
L 109.905455 180.288 
L 109.905455 176.448 
L 120.211948 176.448 
L 120.211948 180.288 
L 115.058701 180.288 
L 115.058701 187.968 
L 120.211948 187.968 
L 120.211948 184.128 
L 125.365195 184.128 
L 125.365195 187.968 
L 130.518442 187.968 
L 130.518442 180.288 
L 125.365195 180.288 
L 125.365195 176.448 
L 135.671688 176.448 
L 135.671688 180.288 
L 140.824935 180.288 
L 140.824935 176.448 
L 151.131429 176.448 
L 151.131429 180.288 
L 145.978182 180.288 
L 145.978182 184.128 
L 151.131429 184.128 
L 151.131429 187.968 
L 140.824935 187.968 
L 140.824935 184.128 
L 135.671688 184.128 
L 135.671688 195.648 
L 140.824935 195.648 
L 140.824935 191.808 
L 151.131429 191.808 
L 151.131429 195.648 
L 145.978182 195.648 
L 145.978182 199.488 
L 151.131429 199.488 
L 151.131429 203.328 
L 140.824935 203.328 
L 140.824935 199.488 
L 135.671688 199.488 
L 135.671688 203.328 
L 125.365195 203.328 
L 125.365195 199.488 
L 130.518442 199.488 
L 130.518442 191.808 
L 125.365195 191.808 
L 125.365195 195.648 
L 120.211948 195.648 
L 120.211948 191.808 
L 115.058701 191.808 
L 115.058701 199.488 
L 120.211948 199.488 
L 120.211948 203.328 
L 115.058701 203.328 
L 115.058701 207.168 
L 120.211948 207.168 
L 120.211948 211.008 
L 115.058701 211.008 
L 115.058701 218.688 
L 120.211948 218.688 
L 120.211948 214.848 
L 125.365195 214.848 
L 125.365195 218.688 
L 130.518442 218.688 
L 130.518442 211.008 
L 125.365195 211.008 
L 125.365195 207.168 
L 135.671688 207.168 
L 135.671688 211.008 
L 140.824935 211.008 
L 140.824935 207.168 
L 151.131429 207.168 
L 151.131429 211.008 
L 145.978182 211.008 
L 145.978182 214.848 
L 151.131429 214.848 
L 151.131429 218.688 
L 140.824935 218.688 
L 140.824935 214.848 
L 135.671688 214.848 
L 135.671688 226.368 
L 140.824935 226.368 
L 140.824935 222.528 
L 151.131429 222.528 
L 151.131429 226.368 
L 145.978182 226.368 
L 145.978182 230.208 
L 151.131429 230.208 
L 151.131429 234.048 
L 140.824935 234.048 
L 140.824935 230.208 
L 135.671688 230.208 
L 135.671688 234.048 
L 125.365195 234.048 
L 125.365195 230.208 
L 130.518442 230.208 
L 130.518442 222.528 
L 125.365195 222.528 
L 125.365195 226.368 
L 120.211948 226.368 
L 120.211948 222.528 
L 115.058701 222.528 
L 115.058701 230.208 
L 120.211948 230.208 
L 120.211948 234.048 
L 109.905455 234.048 
L 109.905455 230.208 
L 104.752208 230.208 
L 104.752208 234.048 
L 94.445714 234.048 
L 94.445714 230.208 
L 99.598961 230.208 
L 99.598961 226.368 
L 94.445714 226.368 
L 94.445714 222.528 
L 104.752208 222.528 
L 104.752208 226.368 
L 109.905455 226.368 
L 109.905455 218.688 
L 104.752208 218.688 
L 104.752208 214.848 
L 109.905455 214.848 
L 109.905455 207.168 
L 104.752208 207.168 
L 104.752208 211.008 
L 99.598961 211.008 
L 99.598961 207.168 
L 94.445714 207.168 
L 94.445714 214.848 
L 99.598961 214.848 
L 99.598961 218.688 
L 84.139221 218.688 
L 84.139221 214.848 
L 89.292468 214.848 
L 89.292468 207.168 
L 84.139221 207.168 
L 84.139221 211.008 
L 78.985974 211.008 
L 78.985974 207.168 
L 73.832727 207.168 
L 73.832727 214.848 
L 78.985974 214.848 
L 78.985974 218.688 
L 73.832727 218.688 
L 73.832727 226.368 
L 78.985974 226.368 
L 78.985974 222.528 
L 89.292468 222.528 
L 89.292468 226.368 
L 84.139221 226.368 
L 84.139221 230.208 
L 89.292468 230.208 
L 89.292468 234.048 
L 78.985974 234.048 
L 78.985974 230.208 
L 73.832727 230.208 
L 73.832727 237.888 
L 78.985974 237.888 
L 78.985974 241.728 
L 73.832727 241.728 
L 73.832727 249.408 
L 78.985974 249.408 
L 78.985974 245.568 
L 84.139221 245.568 
L 84.139221 249.408 
L 89.292468 249.408 
L 89.292468 241.728 
L 84.139221 241.728 
L 84.139221 237.888 
L 94.445714 237.888 
L 94.445714 241.728 
L 99.598961 241.728 
L 99.598961 237.888 
L 109.905455 237.888 
L 109.905455 241.728 
L 104.752208 241.728 
L 104.752208 245.568 
L 109.905455 245.568 
L 109.905455 249.408 
L 99.598961 249.408 
L 99.598961 245.568 
L 94.445714 245.568 
L 94.445714 257.088 
L 99.598961 257.088 
L 99.598961 253.248 
L 109.905455 253.248 
L 109.905455 257.088 
L 104.752208 257.088 
L 104.752208 260.928 
L 109.905455 260.928 
L 109.905455 264.768 
L 99.598961 264.768 
L 99.598961 260.928 
L 94.445714 260.928 
L 94.445714 264.768 
L 84.139221 264.768 
L 84.139221 260.928 
L 89.292468 260.928 
L 89.292468 253.248 
L 84.139221 253.248 
L 84.139221 257.088 
L 78.985974 257.088 
L 78.985974 253.248 
L 73.832727 253.248 
L 73.832727 260.928 
L 78.985974 260.928 
L 78.985974 264.768 
L 73.832727 264.768 
L 73.832727 272.448 
L 78.985974 272.448 
L 78.985974 268.608 
L 89.292468 268.608 
L 89.292468 272.448 
L 84.139221 272.448 
L 84.139221 276.288 
L 89.292468 276.288 
L 89.292468 280.128 
L 78.985974 280.128 
L 78.985974 276.288 
L 73.832727 276.288 
L 73.832727 283.968 
L 78.985974 283.968 
L 78.985974 287.808 
L 73.832727 287.808 
L 73.832727 295.488 
L 78.985974 295.488 
L 78.985974 291.648 
L 84.139221 291.648 
L 84.139221 295.488 
L 89.292468 295.488 
L 89.292468 287.808 
L 84.139221 287.808 
L 84.139221 283.968 
L 99.598961 283.968 
L 99.598961 287.808 
L 94.445714 287.808 
L 94.445714 295.488 
L 99.598961 295.488 
L 99.598961 291.648 
L 104.752208 291.648 
L 104.752208 295.488 
L 109.905455 295.488 
L 109.905455 287.808 
L 104.752208 287.808 
L 104.752208 283.968 
L 109.905455 283.968 
L 109.905455 276.288 
L 104.752208 276.288 
L 104.752208 280.128 
L 94.445714 280.128 
L 94.445714 276.288 
L 99.598961 276.288 
L 99.598961 272.448 
L 94.445714 272.448 
L 94.445714 268.608 
L 104.752208 268.608 
L 104.752208 272.448 
L 109.905455 272.448 
L 109.905455 268.608 
L 115.058701 268.608 
L 115.058701 272.448 
L 120.211948 272.448 
L 120.211948 268.608 
L 130.518442 268.608 
L 130.518442 272.448 
L 125.365195 272.448 
L 125.365195 276.288 
L 130.518442 276.288 
L 130.518442 280.128 
L 120.211948 280.128 
L 120.211948 276.288 
L 115.058701 276.288 
L 115.058701 283.968 
L 120.211948 283.968 
L 120.211948 287.808 
L 115.058701 287.808 
L 115.058701 295.488 
L 120.211948 295.488 
L 120.211948 291.648 
L 125.365195 291.648 
L 125.365195 295.488 
L 130.518442 295.488 
L 130.518442 287.808 
L 125.365195 287.808 
L 125.365195 283.968 
L 140.824935 283.968 
L 140.824935 287.808 
L 135.671688 287.808 
L 135.671688 295.488 
L 140.824935 295.488 
L 140.824935 291.648 
L 145.978182 291.648 
L 145.978182 295.488 
L 151.131429 295.488 
L 151.131429 287.808 
L 145.978182 287.808 
L 145.978182 283.968 
L 151.131429 283.968 
L 151.131429 276.288 
L 145.978182 276.288 
L 145.978182 280.128 
L 135.671688 280.128 
L 135.671688 276.288 
L 140.824935 276.288 
L 140.824935 272.448 
L 135.671688 272.448 
L 135.671688 268.608 
L 145.978182 268.608 
L 145.978182 272.448 
L 151.131429 272.448 
L 151.131429 264.768 
L 145.978182 264.768 
L 145.978182 260.928 
L 151.131429 260.928 
L 151.131429 253.248 
L 145.978182 253.248 
L 145.978182 257.088 
L 140.824935 257.088 
L 140.824935 253.248 
L 135.671688 253.248 
L 135.671688 260.928 
L 140.824935 260.928 
L 140.824935 264.768 
L 130.518442 264.768 
L 130.518442 260.928 
L 125.365195 260.928 
L 125.365195 264.768 
L 115.058701 264.768 
L 115.058701 260.928 
L 120.211948 260.928 
L 120.211948 257.088 
L 115.058701 257.088 
L 115.058701 253.248 
L 125.365195 253.248 
L 125.365195 257.088 
L 130.518442 257.088 
L 130.518442 245.568 
L 125.365195 245.568 
L 125.365195 249.408 
L 115.058701 249.408 
L 115.058701 245.568 
L 120.211948 245.568 
L 120.211948 241.728 
L 115.058701 241.728 
L 115.058701 237.888 
L 125.365195 237.888 
L 125.365195 241.728 
L 130.518442 241.728 
L 130.518442 237.888 
L 140.824935 237.888 
L 140.824935 241.728 
L 135.671688 241.728 
L 135.671688 249.408 
L 140.824935 249.408 
L 140.824935 245.568 
L 145.978182 245.568 
L 145.978182 249.408 
L 151.131429 249.408 
L 151.131429 241.728 
L 145.978182 241.728 
L 145.978182 237.888 
L 161.437922 237.888 
L 161.437922 241.728 
L 156.284675 241.728 
L 156.284675 249.408 
L 161.437922 249.408 
L 161.437922 245.568 
L 166.591169 245.568 
L 166.591169 249.408 
L 171.744416 249.408 
L 171.744416 241.728 
L 166.591169 241.728 
L 166.591169 237.888 
L 176.897662 237.888 
L 176.897662 241.728 
L 182.050909 241.728 
L 182.050909 237.888 
L 192.357403 237.888 
L 192.357403 241.728 
L 187.204156 241.728 
L 187.204156 245.568 
L 192.357403 245.568 
L 192.357403 249.408 
L 182.050909 249.408 
L 182.050909 245.568 
L 176.897662 245.568 
L 176.897662 257.088 
L 182.050909 257.088 
L 182.050909 253.248 
L 192.357403 253.248 
L 192.357403 257.088 
L 187.204156 257.088 
L 187.204156 260.928 
L 192.357403 260.928 
L 192.357403 264.768 
L 182.050909 264.768 
L 182.050909 260.928 
L 176.897662 260.928 
L 176.897662 264.768 
L 166.591169 264.768 
L 166.591169 260.928 
L 171.744416 260.928 
L 171.744416 253.248 
L 166.591169 253.248 
L 166.591169 257.088 
L 161.437922 257.088 
L 161.437922 253.248 
L 156.284675 253.248 
L 156.284675 260.928 
L 161.437922 260.928 
L 161.437922 264.768 
L 156.284675 264.768 
L 156.284675 272.448 
L 161.437922 272.448 
L 161.437922 268.608 
L 171.744416 268.608 
L 171.744416 272.448 
L 166.591169 272.448 
L 166.591169 276.288 
L 171.744416 276.288 
L 171.744416 280.128 
L 161.437922 280.128 
L 161.437922 276.288 
L 156.284675 276.288 
L 156.284675 283.968 
L 161.437922 283.968 
L 161.437922 287.808 
L 156.284675 287.808 
L 156.284675 295.488 
L 161.437922 295.488 
L 161.437922 291.648 
L 166.591169 291.648 
L 166.591169 295.488 
L 171.744416 295.488 
L 171.744416 287.808 
L 166.591169 287.808 
L 166.591169 283.968 
L 182.050909 283.968 
L 182.050909 287.808 
L 176.897662 287.808 
L 176.897662 295.488 
L 182.050909 295.488 
L 182.050909 291.648 
L 187.204156 291.648 
L 187.204156 295.488 
L 192.357403 295.488 
L 192.357403 287.808 
L 187.204156 287.808 
L 187.204156 283.968 
L 192.357403 283.968 
L 192.357403 276.288 
L 187.204156 276.288 
L 187.204156 280.128 
L 176.897662 280.128 
L 176.897662 276.288 
L 182.050909 276.288 
L 182.050909 272.448 
L 176.897662 272.448 
L 176.897662 268.608 
L 187.204156 268.608 
L 187.204156 272.448 
L 192.357403 272.448 
L 192.357403 268.608 
L 197.510649 268.608 
L 197.510649 272.448 
L 202.663896 272.448 
L 202.663896 268.608 
L 212.97039 268.608 
L 212.97039 272.448 
L 207.817143 272.448 
L 207.817143 276.288 
L 212.97039 276.288 
L 212.97039 280.128 
L 202.663896 280.128 
L 202.663896 276.288 
L 197.510649 276.288 
L 197.510649 283.968 
L 202.663896 283.968 
L 202.663896 287.808 
L 197.510649 287.808 
L 197.510649 295.488 
L 202.663896 295.488 
L 202.663896 291.648 
L 207.817143 291.648 
L 207.817143 295.488 
L 212.97039 295.488 
L 212.97039 287.808 
L 207.817143 287.808 
L 207.817143 283.968 
L 223.276883 283.968 
L 223.276883 287.808 
L 218.123636 287.808 
L 218.123636 295.488 
L 223.276883 295.488 
L 223.276883 291.648 
L 228.43013 291.648 
L 228.43013 295.488 
L 233.583377 295.488 
L 233.583377 287.808 
L 228.43013 287.808 
L 228.43013 283.968 
L 233.583377 283.968 
L 233.583377 276.288 
L 228.43013 276.288 
L 228.43013 280.128 
L 218.123636 280.128 
L 218.123636 276.288 
L 223.276883 276.288 
L 223.276883 272.448 
L 218.123636 272.448 
L 218.123636 268.608 
L 228.43013 268.608 
L 228.43013 272.448 
L 233.583377 272.448 
L 233.583377 264.768 
L 228.43013 264.768 
L 228.43013 260.928 
L 233.583377 260.928 
L 233.583377 253.248 
L 228.43013 253.248 
L 228.43013 257.088 
L 223.276883 257.088 
L 223.276883 253.248 
L 218.123636 253.248 
L 218.123636 260.928 
L 223.276883 260.928 
L 223.276883 264.768 
L 212.97039 264.768 
L 212.97039 260.928 
L 207.817143 260.928 
L 207.817143 264.768 
L 197.510649 264.768 
L 197.510649 260.928 
L 202.663896 260.928 
L 202.663896 257.088 
L 197.510649 257.088 
L 197.510649 253.248 
L 207.817143 253.248 
L 207.817143 257.088 
L 212.97039 257.088 
L 212.97039 245.568 
L 207.817143 245.568 
L 207.817143 249.408 
L 197.510649 249.408 
L 197.510649 245.568 
L 202.663896 245.568 
L 202.663896 241.728 
L 197.510649 241.728 
L 197.510649 237.888 
L 207.817143 237.888 
L 207.817143 241.728 
L 212.97039 241.728 
L 212.97039 237.888 
L 223.276883 237.888 
L 223.276883 241.728 
L 218.123636 241.728 
L 218.123636 249.408 
L 223.276883 249.408 
L 223.276883 245.568 
L 228.43013 245.568 
L 228.43013 249.408 
L 233.583377 249.408 
L 233.583377 241.728 
L 228.43013 241.728 
L 228.43013 237.888 
L 233.583377 237.888 
L 233.583377 230.208 
L 228.43013 230.208 
L 228.43013 234.048 
L 218.123636 234.048 
L 218.123636 230.208 
L 223.276883 230.208 
L 223.276883 226.368 
L 218.123636 226.368 
L 218.123636 222.528 
L 228.43013 222.528 
L 228.43013 226.368 
L 233.583377 226.368 
L 233.583377 218.688 
L 228.43013 218.688 
L 228.43013 214.848 
L 233.583377 214.848 
L 233.583377 207.168 
L 228.43013 207.168 
L 228.43013 211.008 
L 223.276883 211.008 
L 223.276883 207.168 
L 218.123636 207.168 
L 218.123636 214.848 
L 223.276883 214.848 
L 223.276883 218.688 
L 207.817143 218.688 
L 207.817143 214.848 
L 212.97039 214.848 
L 212.97039 207.168 
L 207.817143 207.168 
L 207.817143 211.008 
L 202.663896 211.008 
L 202.663896 207.168 
L 197.510649 207.168 
L 197.510649 214.848 
L 202.663896 214.848 
L 202.663896 218.688 
L 197.510649 218.688 
L 197.510649 226.368 
L 202.663896 226.368 
L 202.663896 222.528 
L 212.97039 222.528 
L 212.97039 226.368 
L 207.817143 226.368 
L 207.817143 230.208 
L 212.97039 230.208 
L 212.97039 234.048 
L 202.663896 234.048 
L 202.663896 230.208 
L 197.510649 230.208 
L 197.510649 234.048 
L 187.204156 234.048 
L 187.204156 230.208 
L 192.357403 230.208 
L 192.357403 222.528 
L 187.204156 222.528 
L 187.204156 226.368 
L 182.050909 226.368 
L 182.050909 222.528 
L 176.897662 222.528 
L 176.897662 230.208 
L 182.050909 230.208 
L 182.050909 234.048 
L 171.744416 234.048 
L 171.744416 230.208 
L 166.591169 230.208 
L 166.591169 234.048 
L 156.284675 234.048 
L 156.284675 230.208 
L 161.437922 230.208 
L 161.437922 226.368 
L 156.284675 226.368 
L 156.284675 222.528 
L 166.591169 222.528 
L 166.591169 226.368 
L 171.744416 226.368 
L 171.744416 214.848 
L 166.591169 214.848 
L 166.591169 218.688 
L 156.284675 218.688 
L 156.284675 214.848 
L 161.437922 214.848 
L 161.437922 211.008 
L 156.284675 211.008 
L 156.284675 207.168 
L 166.591169 207.168 
L 166.591169 211.008 
L 171.744416 211.008 
L 171.744416 207.168 
L 182.050909 207.168 
L 182.050909 211.008 
L 176.897662 211.008 
L 176.897662 218.688 
L 182.050909 218.688 
L 182.050909 214.848 
L 187.204156 214.848 
L 187.204156 218.688 
L 192.357403 218.688 
L 192.357403 211.008 
L 187.204156 211.008 
L 187.204156 207.168 
L 192.357403 207.168 
L 192.357403 203.328 
L 187.204156 203.328 
L 187.204156 199.488 
L 192.357403 199.488 
L 192.357403 191.808 
L 187.204156 191.808 
L 187.204156 195.648 
L 182.050909 195.648 
L 182.050909 191.808 
L 176.897662 191.808 
L 176.897662 199.488 
L 182.050909 199.488 
L 182.050909 203.328 
L 171.744416 203.328 
L 171.744416 199.488 
L 166.591169 199.488 
L 166.591169 203.328 
L 156.284675 203.328 
L 156.284675 199.488 
L 161.437922 199.488 
L 161.437922 195.648 
L 156.284675 195.648 
L 156.284675 191.808 
L 166.591169 191.808 
L 166.591169 195.648 
L 171.744416 195.648 
L 171.744416 184.128 
L 166.591169 184.128 
L 166.591169 187.968 
L 156.284675 187.968 
L 156.284675 184.128 
L 161.437922 184.128 
L 161.437922 180.288 
L 156.284675 180.288 
L 156.284675 176.448 
L 166.591169 176.448 
L 166.591169 180.288 
L 171.744416 180.288 
L 171.744416 176.448 
L 182.050909 176.448 
L 182.050909 180.288 
L 176.897662 180.288 
L 176.897662 187.968 
L 182.050909 187.968 
L 182.050909 184.128 
L 187.204156 184.128 
L 187.204156 187.968 
L 192.357403 187.968 
L 192.357403 180.288 
L 187.204156 180.288 
L 187.204156 176.448 
L 197.510649 176.448 
L 197.510649 180.288 
L 202.663896 180.288 
L 202.663896 176.448 
L 212.97039 176.448 
L 212.97039 180.288 
L 207.817143 180.288 
L 207.817143 184.128 
L 212.97039 184.128 
L 212.97039 187.968 
L 202.663896 187.968 
L 202.663896 184.128 
L 197.510649 184.128 
L 197.510649 191.808 
L 202.663896 191.808 
L 202.663896 195.648 
L 197.510649 195.648 
L 197.510649 203.328 
L 202.663896 203.328 
L 202.663896 199.488 
L 207.817143 199.488 
L 207.817143 203.328 
L 212.97039 203.328 
L 212.97039 195.648 
L 207.817143 195.648 
L 207.817143 191.808 
L 223.276883 191.808 
L 223.276883 195.648 
L 218.123636 195.648 
L 218.123636 203.328 
L 223.276883 203.328 
L 223.276883 199.488 
L 228.43013 199.488 
L 228.43013 203.328 
L 233.583377 203.328 
L 233.583377 195.648 
L 228.43013 195.648 
L 228.43013 191.808 
L 233.583377 191.808 
L 233.583377 184.128 
L 228.43013 184.128 
L 228.43013 187.968 
L 218.123636 187.968 
L 218.123636 184.128 
L 223.276883 184.128 
L 223.276883 180.288 
L 218.123636 180.288 
L 218.123636 176.448 
L 228.43013 176.448 
L 228.43013 180.288 
L 233.583377 180.288 
L 233.583377 176.448 
L 238.736623 176.448 
L 238.736623 180.288 
L 243.88987 180.288 
L 243.88987 176.448 
L 254.196364 176.448 
L 254.196364 180.288 
L 249.043117 180.288 
L 249.043117 184.128 
L 254.196364 184.128 
L 254.196364 187.968 
L 243.88987 187.968 
L 243.88987 184.128 
L 238.736623 184.128 
L 238.736623 191.808 
L 243.88987 191.808 
L 243.88987 195.648 
L 238.736623 195.648 
L 238.736623 203.328 
L 243.88987 203.328 
L 243.88987 199.488 
L 249.043117 199.488 
L 249.043117 203.328 
L 254.196364 203.328 
L 254.196364 195.648 
L 249.043117 195.648 
L 249.043117 191.808 
L 264.502857 191.808 
L 264.502857 195.648 
L 259.34961 195.648 
L 259.34961 203.328 
L 264.502857 203.328 
L 264.502857 199.488 
L 269.656104 199.488 
L 269.656104 203.328 
L 274.809351 203.328 
L 274.809351 195.648 
L 269.656104 195.648 
L 269.656104 191.808 
L 274.809351 191.808 
L 274.809351 184.128 
L 269.656104 184.128 
L 269.656104 187.968 
L 259.34961 187.968 
L 259.34961 184.128 
L 264.502857 184.128 
L 264.502857 180.288 
L 259.34961 180.288 
L 259.34961 176.448 
L 269.656104 176.448 
L 269.656104 180.288 
L 274.809351 180.288 
L 274.809351 176.448 
L 285.115844 176.448 
L 285.115844 180.288 
L 279.962597 180.288 
L 279.962597 187.968 
L 285.115844 187.968 
L 285.115844 184.128 
L 290.269091 184.128 
L 290.269091 187.968 
L 295.422338 187.968 
L 295.422338 180.288 
L 290.269091 180.288 
L 290.269091 176.448 
L 300.575584 176.448 
L 300.575584 180.288 
L 305.728831 180.288 
L 305.728831 176.448 
L 316.035325 176.448 
L 316.035325 180.288 
L 310.882078 180.288 
L 310.882078 184.128 
L 316.035325 184.128 
L 316.035325 187.968 
L 305.728831 187.968 
L 305.728831 184.128 
L 300.575584 184.128 
L 300.575584 195.648 
L 305.728831 195.648 
L 305.728831 191.808 
L 316.035325 191.808 
L 316.035325 195.648 
L 310.882078 195.648 
L 310.882078 199.488 
L 316.035325 199.488 
L 316.035325 203.328 
L 305.728831 203.328 
L 305.728831 199.488 
L 300.575584 199.488 
L 300.575584 203.328 
L 290.269091 203.328 
L 290.269091 199.488 
L 295.422338 199.488 
L 295.422338 191.808 
L 290.269091 191.808 
L 290.269091 195.648 
L 285.115844 195.648 
L 285.115844 191.808 
L 279.962597 191.808 
L 279.962597 199.488 
L 285.115844 199.488 
L 285.115844 203.328 
L 279.962597 203.328 
L 279.962597 207.168 
L 285.115844 207.168 
L 285.115844 211.008 
L 279.962597 211.008 
L 279.962597 218.688 
L 285.115844 218.688 
L 285.115844 214.848 
L 290.269091 214.848 
L 290.269091 218.688 
L 295.422338 218.688 
L 295.422338 211.008 
L 290.269091 211.008 
L 290.269091 207.168 
L 300.575584 207.168 
L 300.575584 211.008 
L 305.728831 211.008 
L 305.728831 207.168 
L 316.035325 207.168 
L 316.035325 211.008 
L 310.882078 211.008 
L 310.882078 214.848 
L 316.035325 214.848 
L 316.035325 218.688 
L 305.728831 218.688 
L 305.728831 214.848 
L 300.575584 214.848 
L 300.575584 226.368 
L 305.728831 226.368 
L 305.728831 222.528 
L 316.035325 222.528 
L 316.035325 226.368 
L 310.882078 226.368 
L 310.882078 230.208 
L 316.035325 230.208 
L 316.035325 234.048 
L 305.728831 234.048 
L 305.728831 230.208 
L 300.575584 230.208 
L 300.575584 234.048 
L 290.269091 234.048 
L 290.269091 230.208 
L 295.422338 230.208 
L 295.422338 222.528 
L 290.269091 222.528 
L 290.269091 226.368 
L 285.115844 226.368 
L 285.115844 222.528 
L 279.962597 222.528 
L 279.962597 230.208 
L 285.115844 230.208 
L 285.115844 234.048 
L 274.809351 234.048 
L 274.809351 230.208 
L 269.656104 230.208 
L 269.656104 234.048 
L 259.34961 234.048 
L 259.34961 230.208 
L 264.502857 230.208 
L 264.502857 226.368 
L 259.34961 226.368 
L 259.34961 222.528 
L 269.656104 222.528 
L 269.656104 226.368 
L 274.809351 226.368 
L 274.809351 218.688 
L 269.656104 218.688 
L 269.656104 214.848 
L 274.809351 214.848 
L 274.809351 207.168 
L 269.656104 207.168 
L 269.656104 211.008 
L 264.502857 211.008 
L 264.502857 207.168 
L 259.34961 207.168 
L 259.34961 214.848 
L 264.502857 214.848 
L 264.502857 218.688 
L 249.043117 218.688 
L 249.043117 214.848 
L 254.196364 214.848 
L 254.196364 207.168 
L 249.043117 207.168 
L 249.043117 211.008 
L 243.88987 211.008 
L 243.88987 207.168 
L 238.736623 207.168 
L 238.736623 214.848 
L 243.88987 214.848 
L 243.88987 218.688 
L 238.736623 218.688 
L 238.736623 226.368 
L 243.88987 226.368 
L 243.88987 222.528 
L 254.196364 222.528 
L 254.196364 226.368 
L 249.043117 226.368 
L 249.043117 230.208 
L 254.196364 230.208 
L 254.196364 234.048 
L 243.88987 234.048 
L 243.88987 230.208 
L 238.736623 230.208 
L 238.736623 237.888 
L 243.88987 237.888 
L 243.88987 241.728 
L 238.736623 241.728 
L 238.736623 249.408 
L 243.88987 249.408 
L 243.88987 245.568 
L 249.043117 245.568 
L 249.043117 249.408 
L 254.196364 249.408 
L 254.196364 241.728 
L 249.043117 241.728 
L 249.043117 237.888 
L 259.34961 237.888 
L 259.34961 241.728 
L 264.502857 241.728 
L 264.502857 237.888 
L 274.809351 237.888 
L 274.809351 241.728 
L 269.656104 241.728 
L 269.656104 245.568 
L 274.809351 245.568 
L 274.809351 249.408 
L 264.502857 249.408 
L 264.502857 245.568 
L 259.34961 245.568 
L 259.34961 257.088 
L 264.502857 257.088 
L 264.502857 253.248 
L 274.809351 253.248 
L 274.809351 257.088 
L 269.656104 257.088 
L 269.656104 260.928 
L 274.809351 260.928 
L 274.809351 264.768 
L 264.502857 264.768 
L 264.502857 260.928 
L 259.34961 260.928 
L 259.34961 264.768 
L 249.043117 264.768 
L 249.043117 260.928 
L 254.196364 260.928 
L 254.196364 253.248 
L 249.043117 253.248 
L 249.043117 257.088 
L 243.88987 257.088 
L 243.88987 253.248 
L 238.736623 253.248 
L 238.736623 260.928 
L 243.88987 260.928 
L 243.88987 264.768 
L 238.736623 264.768 
L 238.736623 272.448 
L 243.88987 272.448 
L 243.88987 268.608 
L 254.196364 268.608 
L 254.196364 272.448 
L 249.043117 272.448 
L 249.043117 276.288 
L 254.196364 276.288 
L 254.196364 280.128 
L 243.88987 280.128 
L 243.88987 276.288 
L 238.736623 276.288 
L 238.736623 283.968 
L 243.88987 283.968 
L 243.88987 287.808 
L 238.736623 287.808 
L 238.736623 295.488 
L 243.88987 295.488 
L 243.88987 291.648 
L 249.043117 291.648 
L 249.043117 295.488 
L 254.196364 295.488 
L 254.196364 287.808 
L 249.043117 287.808 
L 249.043117 283.968 
L 264.502857 283.968 
L 264.502857 287.808 
L 259.34961 287.808 
L 259.34961 295.488 
L 264.502857 295.488 
L 264.502857 291.648 
L 269.656104 291.648 
L 269.656104 295.488 
L 274.809351 295.488 
L 274.809351 287.808 
L 269.656104 287.808 
L 269.656104 283.968 
L 274.809351 283.968 
L 274.809351 276.288 
L 269.656104 276.288 
L 269.656104 280.128 
L 259.34961 280.128 
L 259.34961 276.288 
L 264.502857 276.288 
L 264.502857 272.448 
L 259.34961 272.448 
L 259.34961 268.608 
L 269.656104 268.608 
L 269.656104 272.448 
L 274.809351 272.448 
L 274.809351 268.608 
L 279.962597 268.608 
L 279.962597 272.448 
L 285.115844 272.448 
L 285.115844 268.608 
L 295.422338 268.608 
L 295.422338 272.448 
L 290.269091 272.448 
L 290.269091 276.288 
L 295.422338 276.288 
L 295.422338 280.128 
L 285.115844 280.128 
L 285.115844 276.288 
L 279.962597 276.288 
L 279.962597 283.968 
L 285.115844 283.968 
L 285.115844 287.808 
L 279.962597 287.808 
L 279.962597 295.488 
L 285.115844 295.488 
L 285.115844 291.648 
L 290.269091 291.648 
L 290.269091 295.488 
L 295.422338 295.488 
L 295.422338 287.808 
L 290.269091 287.808 
L 290.269091 283.968 
L 305.728831 283.968 
L 305.728831 287.808 
L 300.575584 287.808 
L 300.575584 295.488 
L 305.728831 295.488 
L 305.728831 291.648 
L 310.882078 291.648 
L 310.882078 295.488 
L 316.035325 295.488 
L 316.035325 287.808 
L 310.882078 287.808 
L 310.882078 283.968 
L 316.035325 283.968 
L 316.035325 276.288 
L 310.882078 276.288 
L 310.882078 280.128 
L 300.575584 280.128 
L 300.575584 276.288 
L 305.728831 276.288 
L 305.728831 272.448 
L 300.575584 272.448 
L 300.575584 268.608 
L 310.882078 268.608 
L 310.882078 272.448 
L 316.035325 272.448 
L 316.035325 264.768 
L 310.882078 264.768 
L 310.882078 260.928 
L 316.035325 260.928 
L 316.035325 253.248 
L 310.882078 253.248 
L 310.882078 257.088 
L 305.728831 257.088 
L 305.728831 253.248 
L 300.575584 253.248 
L 300.575584 260.928 
L 305.728831 260.928 
L 305.728831 264.768 
L 295.422338 264.768 
L 295.422338 260.928 
L 290.269091 260.928 
L 290.269091 264.768 
L 279.962597 264.768 
L 279.962597 260.928 
L 285.115844 260.928 
L 285.115844 257.088 
L 279.962597 257.088 
L 279.962597 253.248 
L 290.269091 253.248 
L 290.269091 257.088 
L 295.422338 257.088 
L 295.422338 245.568 
L 290.269091 245.568 
L 290.269091 249.408 
L 279.962597 249.408 
L 279.962597 245.568 
L 285.115844 245.568 
L 285.115844 241.728 
L 279.962597 241.728 
L 279.962597 237.888 
L 290.269091 237.888 
L 290.269091 241.728 
L 295.422338 241.728 
L 295.422338 237.888 
L 305.728831 237.888 
L 305.728831 241.728 
L 300.575584 241.728 
L 300.575584 249.408 
L 305.728831 249.408 
L 305.728831 245.568 
L 310.882078 245.568 
L 310.882078 249.408 
L 316.035325 249.408 
L 316.035325 241.728 
L 310.882078 241.728 
L 310.882078 237.888 
L 326.341818 237.888 
L 326.341818 241.728 
L 321.188571 241.728 
L 321.188571 249.408 
L 326.341818 249.408 
L 326.341818 245.568 
L 331.495065 245.568 
L 331.495065 249.408 
L 336.648312 249.408 
L 336.648312 241.728 
L 331.495065 241.728 
L 331.495065 237.888 
L 341.801558 237.888 
L 341.801558 241.728 
L 346.954805 241.728 
L 346.954805 237.888 
L 357.261299 237.888 
L 357.261299 241.728 
L 352.108052 241.728 
L 352.108052 245.568 
L 357.261299 245.568 
L 357.261299 249.408 
L 346.954805 249.408 
L 346.954805 245.568 
L 341.801558 245.568 
L 341.801558 257.088 
L 346.954805 257.088 
L 346.954805 253.248 
L 357.261299 253.248 
L 357.261299 257.088 
L 352.108052 257.088 
L 352.108052 260.928 
L 357.261299 260.928 
L 357.261299 264.768 
L 346.954805 264.768 
L 346.954805 260.928 
L 341.801558 260.928 
L 341.801558 264.768 
L 331.495065 264.768 
L 331.495065 260.928 
L 336.648312 260.928 
L 336.648312 253.248 
L 331.495065 253.248 
L 331.495065 257.088 
L 326.341818 257.088 
L 326.341818 253.248 
L 321.188571 253.248 
L 321.188571 260.928 
L 326.341818 260.928 
L 326.341818 264.768 
L 321.188571 264.768 
L 321.188571 272.448 
L 326.341818 272.448 
L 326.341818 268.608 
L 336.648312 268.608 
L 336.648312 272.448 
L 331.495065 272.448 
L 331.495065 276.288 
L 336.648312 276.288 
L 336.648312 280.128 
L 326.341818 280.128 
L 326.341818 276.288 
L 321.188571 276.288 
L 321.188571 283.968 
L 326.341818 283.968 
L 326.341818 287.808 
L 321.188571 287.808 
L 321.188571 295.488 
L 326.341818 295.488 
L 326.341818 291.648 
L 331.495065 291.648 
L 331.495065 295.488 
L 336.648312 295.488 
L 336.648312 287.808 
L 331.495065 287.808 
L 331.495065 283.968 
L 346.954805 283.968 
L 346.954805 287.808 
L 341.801558 287.808 
L 341.801558 295.488 
L 346.954805 295.488 
L 346.954805 291.648 
L 352.108052 291.648 
L 352.108052 295.488 
L 357.261299 295.488 
L 357.261299 287.808 
L 352.108052 287.808 
L 352.108052 283.968 
L 357.261299 283.968 
L 357.261299 276.288 
L 352.108052 276.288 
L 352.108052 280.128 
L 341.801558 280.128 
L 341.801558 276.288 
L 346.954805 276.288 
L 346.954805 272.448 
L 341.801558 272.448 
L 341.801558 268.608 
L 352.108052 268.608 
L 352.108052 272.448 
L 357.261299 272.448 
L 357.261299 268.608 
L 362.414545 268.608 
L 362.414545 272.448 
L 367.567792 272.448 
L 367.567792 268.608 
L 377.874286 268.608 
L 377.874286 272.448 
L 372.721039 272.448 
L 372.721039 276.288 
L 377.874286 276.288 
L 377.874286 280.128 
L 367.567792 280.128 
L 367.567792 276.288 
L 362.414545 276.288 
L 362.414545 283.968 
L 367.567792 283.968 
L 367.567792 287.808 
L 362.414545 287.808 
L 362.414545 295.488 
L 367.567792 295.488 
L 367.567792 291.648 
L 372.721039 291.648 
L 372.721039 295.488 
L 377.874286 295.488 
L 377.874286 287.808 
L 372.721039 287.808 
L 372.721039 283.968 
L 388.180779 283.968 
L 388.180779 287.808 
L 383.027532 287.808 
L 383.027532 295.488 
L 388.180779 295.488 
L 388.180779 291.648 
L 393.334026 291.648 
L 393.334026 295.488 
L 398.487273 295.488 
L 398.487273 287.808 
L 393.334026 287.808 
L 393.334026 283.968 
L 398.487273 283.968 
L 398.487273 276.288 
L 393.334026 276.288 
L 393.334026 280.128 
L 383.027532 280.128 
L 383.027532 276.288 
L 388.180779 276.288 
L 388.180779 272.448 
L 383.027532 272.448 
L 383.027532 268.608 
L 393.334026 268.608 
L 393.334026 272.448 
L 398.487273 272.448 
L 398.487273 264.768 
L 393.334026 264.768 
L 393.334026 260.928 
L 398.487273 260.928 
L 398.487273 253.248 
L 393.334026 253.248 
L 393.334026 257.088 
L 388.180779 257.088 
L 388.180779 253.248 
L 383.027532 253.248 
L 383.027532 260.928 
L 388.180779 260.928 
L 388.180779 264.768 
L 377.874286 264.768 
L 377.874286 260.928 
L 372.721039 260.928 
L 372.721039 264.768 
L 362.414545 264.768 
L 362.414545 260.928 
L 367.567792 260.928 
L 367.567792 257.088 
L 362.414545 257.088 
L 362.414545 253.248 
L 372.721039 253.248 
L 372.721039 257.088 
L 377.874286 257.088 
L 377.874286 245.568 
L 372.721039 245.568 
L 372.721039 249.408 
L 362.414545 249.408 
L 362.414545 245.568 
L 367.567792 245.568 
L 367.567792 241.728 
L 362.414545 241.728 
L 362.414545 237.888 
L 372.721039 237.888 
L 372.721039 241.728 
L 377.874286 241.728 
L 377.874286 237.888 
L 388.180779 237.888 
L 388.180779 241.728 
L 383.027532 241.728 
L 383.027532 249.408 
L 388.180779 249.408 
L 388.180779 245.568 
L 393.334026 245.568 
L 393.334026 249.408 
L 398.487273 249.408 
L 398.487273 241.728 
L 393.334026 241.728 
L 393.334026 237.888 
L 398.487273 237.888 
L 398.487273 230.208 
L 393.334026 230.208 
L 393.334026 234.048 
L 383.027532 234.048 
L 383.027532 230.208 
L 388.180779 230.208 
L 388.180779 226.368 
L 383.027532 226.368 
L 383.027532 222.528 
L 393.334026 222.528 
L 393.334026 226.368 
L 398.487273 226.368 
L 398.487273 218.688 
L 393.334026 218.688 
L 393.334026 214.848 
L 398.487273 214.848 
L 398.487273 207.168 
L 393.334026 207.168 
L 393.334026 211.008 
L 388.180779 211.008 
L 388.180779 207.168 
L 383.027532 207.168 
L 383.027532 214.848 
L 388.180779 214.848 
L 388.180779 218.688 
L 372.721039 218.688 
L 372.721039 214.848 
L 377.874286 214.848 
L 377.874286 207.168 
L 372.721039 207.168 
L 372.721039 211.008 
L 367.567792 211.008 
L 367.567792 207.168 
L 362.414545 207.168 
L 362.414545 214.848 
L 367.567792 214.848 
L 367.567792 218.688 
L 362.414545 218.688 
L 362.414545 226.368 
L 367.567792 226.368 
L 367.567792 222.528 
L 377.874286 222.528 
L 377.874286 226.368 
L 372.721039 226.368 
L 372.721039 230.208 
L 377.874286 230.208 
L 377.874286 234.048 
L 367.567792 234.048 
L 367.567792 230.208 
L 362.414545 230.208 
L 362.414545 234.048 
L 352.108052 234.048 
L 352.108052 230.208 
L 357.261299 230.208 
L 357.261299 222.528 
L 352.108052 222.528 
L 352.108052 226.368 
L 346.954805 226.368 
L 346.954805 222.528 
L 341.801558 222.528 
L 341.801558 230.208 
L 346.954805 230.208 
L 346.954805 234.048 
L 336.648312 234.048 
L 336.648312 230.208 
L 331.495065 230.208 
L 331.495065 234.048 
L 321.188571 234.048 
L 321.188571 230.208 
L 326.341818 230.208 
L 326.341818 226.368 
L 321.188571 226.368 
L 321.188571 222.528 
L 331.495065 222.528 
L 331.495065 226.368 
L 336.648312 226.368 
L 336.648312 214.848 
L 331.495065 214.848 
L 331.495065 218.688 
L 321.188571 218.688 
L 321.188571 214.848 
L 326.341818 214.848 
L 326.341818 211.008 
L 321.188571 211.008 
L 321.188571 207.168 
L 331.495065 207.168 
L 331.495065 211.008 
L 336.648312 211.008 
L 336.648312 207.168 
L 346.954805 207.168 
L 346.954805 211.008 
L 341.801558 211.008 
L 341.801558 218.688 
L 346.954805 218.688 
L 346.954805 214.848 
L 352.108052 214.848 
L 352.108052 218.688 
L 357.261299 218.688 
L 357.261299 211.008 
L 352.108052 211.008 
L 352.108052 207.168 
L 357.261299 207.168 
L 357.261299 203.328 
L 352.108052 203.328 
L 352.108052 199.488 
L 357.261299 199.488 
L 357.261299 191.808 
L 352.108052 191.808 
L 352.108052 195.648 
L 346.954805 195.648 
L 346.954805 191.808 
L 341.801558 191.808 
L 341.801558 199.488 
L 346.954805 199.488 
L 346.954805 203.328 
L 336.648312 203.328 
L 336.648312 199.488 
L 331.495065 199.488 
L 331.495065 203.328 
L 321.188571 203.328 
L 321.188571 199.488 
L 326.341818 199.488 
L 326.341818 195.648 
L 321.188571 195.648 
L 321.188571 191.808 
L 331.495065 191.808 
L 331.495065 195.648 
L 336.648312 195.648 
L 336.648312 184.128 
L 331.495065 184.128 
L 331.495065 187.968 
L 321.188571 187.968 
L 321.188571 184.128 
L 326.341818 184.128 
L 326.341818 180.288 
L 321.188571 180.288 
L 321.188571 176.448 
L 331.495065 176.448 
L 331.495065 180.288 
L 336.648312 180.288 
L 336.648312 176.448 
L 346.954805 176.448 
L 346.954805 180.288 
L 341.801558 180.288 
L 341.801558 187.968 
L 346.954805 187.968 
L 346.954805 184.128 
L 352.108052 184.128 
L 352.108052 187.968 
L 357.261299 187.968 
L 357.261299 180.288 
L 352.108052 180.288 
L 352.108052 176.448 
L 362.414545 176.448 
L 362.414545 180.288 
L 367.567792 180.288 
L 367.567792 176.448 
L 377.874286 176.448 
L 377.874286 180.288 
L 372.721039 180.288 
L 372.721039 184.128 
L 377.874286 184.128 
L 377.874286 187.968 
L 367.567792 187.968 
L 367.567792 184.128 
L 362.414545 184.128 
L 362.414545 191.808 
L 367.567792 191.808 
L 367.567792 195.648 
L 362.414545 195.648 
L 362.414545 203.328 
L 367.567792 203.328 
L 367.567792 199.488 
L 372.721039 199.488 
L 372.721039 203.328 
L 377.874286 203.328 
L 377.874286 195.648 
L 372.721039 195.648 
L 372.721039 191.808 
L 388.180779 191.808 
L 388.180779 195.648 
L 383.027532 195.648 
L 383.027532 203.328 
L 388.180779 203.328 
L 388.180779 199.488 
L 393.334026 199.488 
L 393.334026 203.328 
L 398.487273 203.328 
L 398.487273 195.648 
L 393.334026 195.648 
L 393.334026 191.808 
L 398.487273 191.808 
L 398.487273 184.128 
L 393.334026 184.128 
L 393.334026 187.968 
L 383.027532 187.968 
L 383.027532 184.128 
L 388.180779 184.128 
L 388.180779 180.288 
L 383.027532 180.288 
L 383.027532 176.448 
L 393.334026 176.448 
L 393.334026 180.288 
L 398.487273 180.288 
L 398.487273 172.608 
L 393.334026 172.608 
L 393.334026 168.768 
L 398.487273 168.768 
L 398.487273 161.088 
L 393.334026 161.088 
L 393.334026 164.928 
L 388.180779 164.928 
L 388.180779 161.088 
L 383.027532 161.088 
L 383.027532 168.768 
L 388.180779 168.768 
L 388.180779 172.608 
L 377.874286 172.608 
L 377.874286 168.768 
L 372.721039 168.768 
L 372.721039 172.608 
L 362.414545 172.608 
L 362.414545 168.768 
L 367.567792 168.768 
L 367.567792 164.928 
L 362.414545 164.928 
L 362.414545 161.088 
L 372.721039 161.088 
L 372.721039 164.928 
L 377.874286 164.928 
L 377.874286 153.408 
L 372.721039 153.408 
L 372.721039 157.248 
L 362.414545 157.248 
L 362.414545 153.408 
L 367.567792 153.408 
L 367.567792 149.568 
L 362.414545 149.568 
L 362.414545 145.728 
L 372.721039 145.728 
L 372.721039 149.568 
L 377.874286 149.568 
L 377.874286 145.728 
L 388.180779 145.728 
L 388.180779 149.568 
L 383.027532 149.568 
L 383.027532 157.248 
L 388.180779 157.248 
L 388.180779 153.408 
L 393.334026 153.408 
L 393.334026 157.248 
L 398.487273 157.248 
L 398.487273 149.568 
L 393.334026 149.568 
L 393.334026 145.728 
L 398.487273 145.728 
L 398.487273 138.048 
L 393.334026 138.048 
L 393.334026 141.888 
L 383.027532 141.888 
L 383.027532 138.048 
L 388.180779 138.048 
L 388.180779 134.208 
L 383.027532 134.208 
L 383.027532 130.368 
L 393.334026 130.368 
L 393.334026 134.208 
L 398.487273 134.208 
L 398.487273 126.528 
L 393.334026 126.528 
L 393.334026 122.688 
L 398.487273 122.688 
L 398.487273 115.008 
L 393.334026 115.008 
L 393.334026 118.848 
L 388.180779 118.848 
L 388.180779 115.008 
L 383.027532 115.008 
L 383.027532 122.688 
L 388.180779 122.688 
L 388.180779 126.528 
L 372.721039 126.528 
L 372.721039 122.688 
L 377.874286 122.688 
L 377.874286 115.008 
L 372.721039 115.008 
L 372.721039 118.848 
L 367.567792 118.848 
L 367.567792 115.008 
L 362.414545 115.008 
L 362.414545 122.688 
L 367.567792 122.688 
L 367.567792 126.528 
L 362.414545 126.528 
L 362.414545 134.208 
L 367.567792 134.208 
L 367.567792 130.368 
L 377.874286 130.368 
L 377.874286 134.208 
L 372.721039 134.208 
L 372.721039 138.048 
L 377.874286 138.048 
L 377.874286 141.888 
L 367.567792 141.888 
L 367.567792 138.048 
L 362.414545 138.048 
L 362.414545 141.888 
L 357.261299 141.888 
L 357.261299 138.048 
L 352.108052 138.048 
L 352.108052 141.888 
L 341.801558 141.888 
L 341.801558 138.048 
L 346.954805 138.048 
L 346.954805 134.208 
L 341.801558 134.208 
L 341.801558 130.368 
L 352.108052 130.368 
L 352.108052 134.208 
L 357.261299 134.208 
L 357.261299 126.528 
L 352.108052 126.528 
L 352.108052 122.688 
L 357.261299 122.688 
L 357.261299 115.008 
L 352.108052 115.008 
L 352.108052 118.848 
L 346.954805 118.848 
L 346.954805 115.008 
L 341.801558 115.008 
L 341.801558 122.688 
L 346.954805 122.688 
L 346.954805 126.528 
L 331.495065 126.528 
L 331.495065 122.688 
L 336.648312 122.688 
L 336.648312 115.008 
L 331.495065 115.008 
L 331.495065 118.848 
L 326.341818 118.848 
L 326.341818 115.008 
L 321.188571 115.008 
L 321.188571 122.688 
L 326.341818 122.688 
L 326.341818 126.528 
L 321.188571 126.528 
L 321.188571 134.208 
L 326.341818 134.208 
L 326.341818 130.368 
L 336.648312 130.368 
L 336.648312 134.208 
L 331.495065 134.208 
L 331.495065 138.048 
L 336.648312 138.048 
L 336.648312 141.888 
L 326.341818 141.888 
L 326.341818 138.048 
L 321.188571 138.048 
L 321.188571 145.728 
L 326.341818 145.728 
L 326.341818 149.568 
L 321.188571 149.568 
L 321.188571 157.248 
L 326.341818 157.248 
L 326.341818 153.408 
L 331.495065 153.408 
L 331.495065 157.248 
L 336.648312 157.248 
L 336.648312 149.568 
L 331.495065 149.568 
L 331.495065 145.728 
L 341.801558 145.728 
L 341.801558 149.568 
L 346.954805 149.568 
L 346.954805 145.728 
L 357.261299 145.728 
L 357.261299 149.568 
L 352.108052 149.568 
L 352.108052 153.408 
L 357.261299 153.408 
L 357.261299 157.248 
L 346.954805 157.248 
L 346.954805 153.408 
L 341.801558 153.408 
L 341.801558 164.928 
L 346.954805 164.928 
L 346.954805 161.088 
L 357.261299 161.088 
L 357.261299 164.928 
L 352.108052 164.928 
L 352.108052 168.768 
L 357.261299 168.768 
L 357.261299 172.608 
L 346.954805 172.608 
L 346.954805 168.768 
L 341.801558 168.768 
L 341.801558 172.608 
L 331.495065 172.608 
L 331.495065 168.768 
L 336.648312 168.768 
L 336.648312 161.088 
L 331.495065 161.088 
L 331.495065 164.928 
L 326.341818 164.928 
L 326.341818 161.088 
L 321.188571 161.088 
L 321.188571 168.768 
L 326.341818 168.768 
L 326.341818 172.608 
L 316.035325 172.608 
L 316.035325 168.768 
L 310.882078 168.768 
L 310.882078 172.608 
L 300.575584 172.608 
L 300.575584 168.768 
L 305.728831 168.768 
L 305.728831 164.928 
L 300.575584 164.928 
L 300.575584 161.088 
L 310.882078 161.088 
L 310.882078 164.928 
L 316.035325 164.928 
L 316.035325 157.248 
L 310.882078 157.248 
L 310.882078 153.408 
L 316.035325 153.408 
L 316.035325 145.728 
L 310.882078 145.728 
L 310.882078 149.568 
L 305.728831 149.568 
L 305.728831 145.728 
L 300.575584 145.728 
L 300.575584 153.408 
L 305.728831 153.408 
L 305.728831 157.248 
L 290.269091 157.248 
L 290.269091 153.408 
L 295.422338 153.408 
L 295.422338 145.728 
L 290.269091 145.728 
L 290.269091 149.568 
L 285.115844 149.568 
L 285.115844 145.728 
L 279.962597 145.728 
L 279.962597 153.408 
L 285.115844 153.408 
L 285.115844 157.248 
L 279.962597 157.248 
L 279.962597 164.928 
L 285.115844 164.928 
L 285.115844 161.088 
L 295.422338 161.088 
L 295.422338 164.928 
L 290.269091 164.928 
L 290.269091 168.768 
L 295.422338 168.768 
L 295.422338 172.608 
L 285.115844 172.608 
L 285.115844 168.768 
L 279.962597 168.768 
L 279.962597 172.608 
L 269.656104 172.608 
L 269.656104 168.768 
L 274.809351 168.768 
L 274.809351 161.088 
L 269.656104 161.088 
L 269.656104 164.928 
L 264.502857 164.928 
L 264.502857 161.088 
L 259.34961 161.088 
L 259.34961 168.768 
L 264.502857 168.768 
L 264.502857 172.608 
L 254.196364 172.608 
L 254.196364 168.768 
L 249.043117 168.768 
L 249.043117 172.608 
L 238.736623 172.608 
L 238.736623 168.768 
L 243.88987 168.768 
L 243.88987 164.928 
L 238.736623 164.928 
L 238.736623 161.088 
L 249.043117 161.088 
L 249.043117 164.928 
L 254.196364 164.928 
L 254.196364 153.408 
L 249.043117 153.408 
L 249.043117 157.248 
L 238.736623 157.248 
L 238.736623 153.408 
L 243.88987 153.408 
L 243.88987 149.568 
L 238.736623 149.568 
L 238.736623 145.728 
L 249.043117 145.728 
L 249.043117 149.568 
L 254.196364 149.568 
L 254.196364 145.728 
L 264.502857 145.728 
L 264.502857 149.568 
L 259.34961 149.568 
L 259.34961 157.248 
L 264.502857 157.248 
L 264.502857 153.408 
L 269.656104 153.408 
L 269.656104 157.248 
L 274.809351 157.248 
L 274.809351 149.568 
L 269.656104 149.568 
L 269.656104 145.728 
L 274.809351 145.728 
L 274.809351 141.888 
L 269.656104 141.888 
L 269.656104 138.048 
L 274.809351 138.048 
L 274.809351 130.368 
L 269.656104 130.368 
L 269.656104 134.208 
L 264.502857 134.208 
L 264.502857 130.368 
L 259.34961 130.368 
L 259.34961 138.048 
L 264.502857 138.048 
L 264.502857 141.888 
L 254.196364 141.888 
L 254.196364 138.048 
L 249.043117 138.048 
L 249.043117 141.888 
L 238.736623 141.888 
L 238.736623 138.048 
L 243.88987 138.048 
L 243.88987 134.208 
L 238.736623 134.208 
L 238.736623 130.368 
L 249.043117 130.368 
L 249.043117 134.208 
L 254.196364 134.208 
L 254.196364 122.688 
L 249.043117 122.688 
L 249.043117 126.528 
L 238.736623 126.528 
L 238.736623 122.688 
L 243.88987 122.688 
L 243.88987 118.848 
L 238.736623 118.848 
L 238.736623 115.008 
L 249.043117 115.008 
L 249.043117 118.848 
L 254.196364 118.848 
L 254.196364 115.008 
L 264.502857 115.008 
L 264.502857 118.848 
L 259.34961 118.848 
L 259.34961 126.528 
L 264.502857 126.528 
L 264.502857 122.688 
L 269.656104 122.688 
L 269.656104 126.528 
L 274.809351 126.528 
L 274.809351 118.848 
L 269.656104 118.848 
L 269.656104 115.008 
L 279.962597 115.008 
L 279.962597 118.848 
L 285.115844 118.848 
L 285.115844 115.008 
L 295.422338 115.008 
L 295.422338 118.848 
L 290.269091 118.848 
L 290.269091 122.688 
L 295.422338 122.688 
L 295.422338 126.528 
L 285.115844 126.528 
L 285.115844 122.688 
L 279.962597 122.688 
L 279.962597 130.368 
L 285.115844 130.368 
L 285.115844 134.208 
L 279.962597 134.208 
L 279.962597 141.888 
L 285.115844 141.888 
L 285.115844 138.048 
L 290.269091 138.048 
L 290.269091 141.888 
L 295.422338 141.888 
L 295.422338 134.208 
L 290.269091 134.208 
L 290.269091 130.368 
L 305.728831 130.368 
L 305.728831 134.208 
L 300.575584 134.208 
L 300.575584 141.888 
L 305.728831 141.888 
L 305.728831 138.048 
L 310.882078 138.048 
L 310.882078 141.888 
L 316.035325 141.888 
L 316.035325 134.208 
L 310.882078 134.208 
L 310.882078 130.368 
L 316.035325 130.368 
L 316.035325 122.688 
L 310.882078 122.688 
L 310.882078 126.528 
L 300.575584 126.528 
L 300.575584 122.688 
L 305.728831 122.688 
L 305.728831 118.848 
L 300.575584 118.848 
L 300.575584 115.008 
L 310.882078 115.008 
L 310.882078 118.848 
L 316.035325 118.848 
L 316.035325 107.328 
L 310.882078 107.328 
L 310.882078 111.168 
L 300.575584 111.168 
L 300.575584 107.328 
L 305.728831 107.328 
L 305.728831 103.488 
L 300.575584 103.488 
L 300.575584 99.648 
L 310.882078 99.648 
L 310.882078 103.488 
L 316.035325 103.488 
L 316.035325 95.808 
L 310.882078 95.808 
L 310.882078 91.968 
L 316.035325 91.968 
L 316.035325 84.288 
L 310.882078 84.288 
L 310.882078 88.128 
L 305.728831 88.128 
L 305.728831 84.288 
L 300.575584 84.288 
L 300.575584 91.968 
L 305.728831 91.968 
L 305.728831 95.808 
L 290.269091 95.808 
L 290.269091 91.968 
L 295.422338 91.968 
L 295.422338 84.288 
L 290.269091 84.288 
L 290.269091 88.128 
L 285.115844 88.128 
L 285.115844 84.288 
L 279.962597 84.288 
L 279.962597 91.968 
L 285.115844 91.968 
L 285.115844 95.808 
L 279.962597 95.808 
L 279.962597 103.488 
L 285.115844 103.488 
L 285.115844 99.648 
L 295.422338 99.648 
L 295.422338 103.488 
L 290.269091 103.488 
L 290.269091 107.328 
L 295.422338 107.328 
L 295.422338 111.168 
L 285.115844 111.168 
L 285.115844 107.328 
L 279.962597 107.328 
L 279.962597 111.168 
L 269.656104 111.168 
L 269.656104 107.328 
L 274.809351 107.328 
L 274.809351 99.648 
L 269.656104 99.648 
L 269.656104 103.488 
L 264.502857 103.488 
L 264.502857 99.648 
L 259.34961 99.648 
L 259.34961 107.328 
L 264.502857 107.328 
L 264.502857 111.168 
L 254.196364 111.168 
L 254.196364 107.328 
L 249.043117 107.328 
L 249.043117 111.168 
L 238.736623 111.168 
L 238.736623 107.328 
L 243.88987 107.328 
L 243.88987 103.488 
L 238.736623 103.488 
L 238.736623 99.648 
L 249.043117 99.648 
L 249.043117 103.488 
L 254.196364 103.488 
L 254.196364 91.968 
L 249.043117 91.968 
L 249.043117 95.808 
L 238.736623 95.808 
L 238.736623 91.968 
L 243.88987 91.968 
L 243.88987 88.128 
L 238.736623 88.128 
L 238.736623 84.288 
L 249.043117 84.288 
L 249.043117 88.128 
L 254.196364 88.128 
L 254.196364 84.288 
L 264.502857 84.288 
L 264.502857 88.128 
L 259.34961 88.128 
L 259.34961 95.808 
L 264.502857 95.808 
L 264.502857 91.968 
L 269.656104 91.968 
L 269.656104 95.808 
L 274.809351 95.808 
L 274.809351 88.128 
L 269.656104 88.128 
L 269.656104 84.288 
L 274.809351 84.288 
L 274.809351 80.448 
L 269.656104 80.448 
L 269.656104 76.608 
L 274.809351 76.608 
L 274.809351 68.928 
L 269.656104 68.928 
L 269.656104 72.768 
L 264.502857 72.768 
L 264.502857 68.928 
L 259.34961 68.928 
L 259.34961 76.608 
L 264.502857 76.608 
L 264.502857 80.448 
L 254.196364 80.448 
L 254.196364 76.608 
L 249.043117 76.608 
L 249.043117 80.448 
L 238.736623 80.448 
L 238.736623 76.608 
L 243.88987 76.608 
L 243.88987 72.768 
L 238.736623 72.768 
L 238.736623 68.928 
L 249.043117 68.928 
L 249.043117 72.768 
L 254.196364 72.768 
L 254.196364 61.248 
L 249.043117 61.248 
L 249.043117 65.088 
L 238.736623 65.088 
L 238.736623 61.248 
L 243.88987 61.248 
L 243.88987 57.408 
L 238.736623 57.408 
L 238.736623 53.568 
L 249.043117 53.568 
L 249.043117 57.408 
L 254.196364 57.408 
L 254.196364 53.568 
L 264.502857 53.568 
L 264.502857 57.408 
L 259.34961 57.408 
L 259.34961 65.088 
L 264.502857 65.088 
L 264.502857 61.248 
L 269.656104 61.248 
L 269.656104 65.088 
L 274.809351 65.088 
L 274.809351 57.408 
L 269.656104 57.408 
L 269.656104 53.568 
L 279.962597 53.568 
L 279.962597 57.408 
L 285.115844 57.408 
L 285.115844 53.568 
L 295.422338 53.568 
L 295.422338 57.408 
L 290.269091 57.408 
L 290.269091 61.248 
L 295.422338 61.248 
L 295.422338 65.088 
L 285.115844 65.088 
L 285.115844 61.248 
L 279.962597 61.248 
L 279.962597 68.928 
L 285.115844 68.928 
L 285.115844 72.768 
L 279.962597 72.768 
L 279.962597 80.448 
L 285.115844 80.448 
L 285.115844 76.608 
L 290.269091 76.608 
L 290.269091 80.448 
L 295.422338 80.448 
L 295.422338 72.768 
L 290.269091 72.768 
L 290.269091 68.928 
L 305.728831 68.928 
L 305.728831 72.768 
L 300.575584 72.768 
L 300.575584 80.448 
L 305.728831 80.448 
L 305.728831 76.608 
L 310.882078 76.608 
L 310.882078 80.448 
L 316.035325 80.448 
L 316.035325 72.768 
L 310.882078 72.768 
L 310.882078 68.928 
L 316.035325 68.928 
L 316.035325 61.248 
L 310.882078 61.248 
L 310.882078 65.088 
L 300.575584 65.088 
L 300.575584 61.248 
L 305.728831 61.248 
L 305.728831 57.408 
L 300.575584 57.408 
L 300.575584 53.568 
L 310.882078 53.568 
L 310.882078 57.408 
L 316.035325 57.408 
L 316.035325 53.568 
L 326.341818 53.568 
L 326.341818 57.408 
L 321.188571 57.408 
L 321.188571 65.088 
L 326.341818 65.088 
L 326.341818 61.248 
L 331.495065 61.248 
L 331.495065 65.088 
L 336.648312 65.088 
L 336.648312 57.408 
L 331.495065 57.408 
L 331.495065 53.568 
L 341.801558 53.568 
L 341.801558 57.408 
L 346.954805 57.408 
L 346.954805 53.568 
L 357.261299 53.568 
L 357.261299 57.408 
L 352.108052 57.408 
L 352.108052 61.248 
L 357.261299 61.248 
L 357.261299 65.088 
L 346.954805 65.088 
L 346.954805 61.248 
L 341.801558 61.248 
L 341.801558 72.768 
L 346.954805 72.768 
L 346.954805 68.928 
L 357.261299 68.928 
L 357.261299 72.768 
L 352.108052 72.768 
L 352.108052 76.608 
L 357.261299 76.608 
L 357.261299 80.448 
L 346.954805 80.448 
L 346.954805 76.608 
L 341.801558 76.608 
L 341.801558 80.448 
L 331.495065 80.448 
L 331.495065 76.608 
L 336.648312 76.608 
L 336.648312 68.928 
L 331.495065 68.928 
L 331.495065 72.768 
L 326.341818 72.768 
L 326.341818 68.928 
L 321.188571 68.928 
L 321.188571 76.608 
L 326.341818 76.608 
L 326.341818 80.448 
L 321.188571 80.448 
L 321.188571 88.128 
L 326.341818 88.128 
L 326.341818 84.288 
L 336.648312 84.288 
L 336.648312 88.128 
L 331.495065 88.128 
L 331.495065 91.968 
L 336.648312 91.968 
L 336.648312 95.808 
L 326.341818 95.808 
L 326.341818 91.968 
L 321.188571 91.968 
L 321.188571 99.648 
L 326.341818 99.648 
L 326.341818 103.488 
L 321.188571 103.488 
L 321.188571 111.168 
L 326.341818 111.168 
L 326.341818 107.328 
L 331.495065 107.328 
L 331.495065 111.168 
L 336.648312 111.168 
L 336.648312 103.488 
L 331.495065 103.488 
L 331.495065 99.648 
L 346.954805 99.648 
L 346.954805 103.488 
L 341.801558 103.488 
L 341.801558 111.168 
L 346.954805 111.168 
L 346.954805 107.328 
L 352.108052 107.328 
L 352.108052 111.168 
L 357.261299 111.168 
L 357.261299 103.488 
L 352.108052 103.488 
L 352.108052 99.648 
L 357.261299 99.648 
L 357.261299 91.968 
L 352.108052 91.968 
L 352.108052 95.808 
L 341.801558 95.808 
L 341.801558 91.968 
L 346.954805 91.968 
L 346.954805 88.128 
L 341.801558 88.128 
L 341.801558 84.288 
L 352.108052 84.288 
L 352.108052 88.128 
L 357.261299 88.128 
L 357.261299 84.288 
L 362.414545 84.288 
L 362.414545 88.128 
L 367.567792 88.128 
L 367.567792 84.288 
L 377.874286 84.288 
L 377.874286 88.128 
L 372.721039 88.128 
L 372.721039 91.968 
L 377.874286 91.968 
L 377.874286 95.808 
L 367.567792 95.808 
L 367.567792 91.968 
L 362.414545 91.968 
L 362.414545 99.648 
L 367.567792 99.648 
L 367.567792 103.488 
L 362.414545 103.488 
L 362.414545 111.168 
L 367.567792 111.168 
L 367.567792 107.328 
L 372.721039 107.328 
L 372.721039 111.168 
L 377.874286 111.168 
L 377.874286 103.488 
L 372.721039 103.488 
L 372.721039 99.648 
L 388.180779 99.648 
L 388.180779 103.488 
L 383.027532 103.488 
L 383.027532 111.168 
L 388.180779 111.168 
L 388.180779 107.328 
L 393.334026 107.328 
L 393.334026 111.168 
L 398.487273 111.168 
L 398.487273 103.488 
L 393.334026 103.488 
L 393.334026 99.648 
L 398.487273 99.648 
L 398.487273 91.968 
L 393.334026 91.968 
L 393.334026 95.808 
L 383.027532 95.808 
L 383.027532 91.968 
L 388.180779 91.968 
L 388.180779 88.128 
L 383.027532 88.128 
L 383.027532 84.288 
L 393.334026 84.288 
L 393.334026 88.128 
L 398.487273 88.128 
L 398.487273 80.448 
L 393.334026 80.448 
L 393.334026 76.608 
L 398.487273 76.608 
L 398.487273 68.928 
L 393.334026 68.928 
L 393.334026 72.768 
L 388.180779 72.768 
L 388.180779 68.928 
L 383.027532 68.928 
L 383.027532 76.608 
L 388.180779 76.608 
L 388.180779 80.448 
L 377.874286 80.448 
L 377.874286 76.608 
L 372.721039 76.608 
L 372.721039 80.448 
L 362.414545 80.448 
L 362.414545 76.608 
L 367.567792 76.608 
L 367.567792 72.768 
L 362.414545 72.768 
L 362.414545 68.928 
L 372.721039 68.928 
L 372.721039 72.768 
L 377.874286 72.768 
L 377.874286 61.248 
L 372.721039 61.248 
L 372.721039 65.088 
L 362.414545 65.088 
L 362.414545 61.248 
L 367.567792 61.248 
L 367.567792 57.408 
L 362.414545 57.408 
L 362.414545 53.568 
L 372.721039 53.568 
L 372.721039 57.408 
L 377.874286 57.408 
L 377.874286 53.568 
L 388.180779 53.568 
L 388.180779 57.408 
L 383.027532 57.408 
L 383.027532 65.088 
L 388.180779 65.088 
L 388.180779 61.248 
L 393.334026 61.248 
L 393.334026 65.088 
L 398.487273 65.088 
L 398.487273 57.408 
L 393.334026 57.408 
L 393.334026 53.568 
L 398.487273 53.568 
L 398.487273 53.568 
" style="fill:none;stroke:#000000;stroke-linecap:square;stroke-width:1.5;"/>
   </g>
   <g id="patch_3">
    <path d="M 57.6 307.584 
L 57.6 41.472 
" style="fill:none;stroke:#000000;stroke-linecap:square;stroke-linejoin:miter;stroke-width:0.8;"/>
   </g>
   <g id="patch_4">
    <path d="M 414.72 307.584 
L 414.72 41.472 
" style="fill:none;stroke:#000000;stroke-linecap:square;stroke-linejoin:miter;stroke-width:0.8;"/>
   </g>
   <g id="patch_5">
    <path d="M 57.6 307.584 
L 414.72 307.584 
" style="fill:none;stroke:#000000;stroke-linecap:square;stroke-linejoin:miter;stroke-width:0.8;"/>
   </g>
   <g id="patch_6">
    <path d="M 57.6 41.472 
L 414.72 41.472 
" style="fill:none;stroke:#000000;stroke-linecap:square;stroke-linejoin:miter;stroke-width:0.8;"/>
   </g>
  </g>
 </g>
 <defs>
  <clipPath id="pf9c88724e6">
   <rect height="266.112" width="357.12" x="57.6" y="41.472"/>
  </clipPath>
 </defs>
</svg>
